<svg xmlns="http://www.w3.org/2000/svg" width="270" height="240" viewBox="0 0 270 240">
    <g fill="none" fill-rule="evenodd">
        <path fill="#F5FEF2" d="M68.228 125.286c18.35 21.474 30.585 49.085 56.888 59.515 18.35 6.75 40.983 6.75 52.605-10.43 23.857-35.587 37.314-81.604 82.58-89.58 1.751-.324 3.471-.474 5.158-.47 7.46-22.765 1.636-48.531-15.326-66.688-12.893-13.8-33.24-21.185-51.354-15.938-8.257 2.392-16.16 5.788-18.05 14.011-1.919 8.358-2.55 16.523-5.583 24.697-5.747 15.491-15.475 29.532-28.187 40.08-20.544 17.047-48.544 24.7-74.87 20.465-11.164-1.796-22.235-5.624-33.49-4.53-18.554 1.805-29.162 15.03-34.549 31.197 16.27-17.506 47.407-20.728 64.178-2.33"/>
        <path fill="#E2FFDE" d="M259.632 97.395c2.737-4.37 4.86-8.968 6.42-13.695-1.687-.004-3.407.146-5.16.467-45.264 7.93-58.721 53.676-82.577 89.053-11.622 17.079-34.254 17.079-52.605 10.37-26.303-10.37-38.536-37.818-56.887-59.166-16.77-18.29-47.907-15.088-64.177 2.315-4.63 13.816-5.404 29.794-4.041 42.586 2.793 26.225 18.335 68.6 50.973 62.598 9.879-1.816 20.008-1.555 30.05-1.286l148.917 3.978c3.709.1 6.996.366 10.15.26 4.186-.138 8.138-.93 12.533-3.63 6.658-4.092 12.003-10.378 14.707-17.717 4.179-11.347 1.899-24.82-5.78-34.172-6.285-7.65-15.753-12.578-20.686-21.156-5.578-9.7-4.043-22.087.494-32.312 4.537-10.225 11.727-19.01 17.669-28.493"/>
        <g>
            <path fill="#FFED83" fill-rule="nonzero" d="M5.904 33.735H132.41c5.06 65.571 7.309 100.15 6.747 103.735-3.795 3.131-10.587-2.254-30.919 1.646C74.02 145.68 7.413 135.783.843 133.253c-1.555-2.522.131-35.695 5.06-99.518z" transform="translate(66 84)"/>
            <path fill="#FFA228" fill-rule="nonzero" d="M123.976 8.434h-21.084V4.217c0-2.33-1.889-4.217-4.218-4.217h-8.433c-2.33 0-4.217 1.888-4.217 4.217v4.217H52.289V4.217C52.29 1.887 50.402 0 48.073 0h-8.434c-2.329 0-4.218 1.888-4.218 4.217v4.217H14.337c-4.652.013-8.42 3.781-8.433 8.433v16.868H132.41V16.867c-.014-4.652-3.782-8.42-8.434-8.433z" transform="translate(66 84)"/>
            <g>
                <path fill="#FFC477" fill-rule="nonzero" d="M4.299.214h8.433c2.33 0 4.217 1.888 4.217 4.217v8.434c0 2.329-1.888 4.216-4.217 4.216H4.3c-2.33 0-4.217-1.887-4.217-4.216V4.43C.082 2.102 1.97.214 4.299.214zM38.034.214h8.434c2.329 0 4.217 1.888 4.217 4.217v8.434c0 2.329-1.888 4.216-4.217 4.216h-8.434c-2.329 0-4.217-1.887-4.217-4.216V4.43c0-2.329 1.888-4.217 4.217-4.217z" transform="translate(66 84) translate(26.906 54.605)"/>
                <path fill="#676FB2" d="M42.975 13.907l-.654-1.05c-1.427-2.294-4.347-4.343-5.352-4.94l.748-1.343c1.189.706 3.606 2.452 5.233 4.528 2.247-3.09 5.568-6.276 10.119-9.707l.963 1.268C49.173 6.33 45.774 9.69 43.63 12.92l-.655.987M9.725 13.907l-.654-1.05c-1.427-2.294-4.347-4.343-5.352-4.94l.748-1.343c1.189.706 3.606 2.452 5.233 4.528 2.247-3.09 5.568-6.276 10.119-9.707l.963 1.268C15.923 6.33 12.524 9.69 10.38 12.92l-.655.987" transform="translate(66 84) translate(26.906 54.605)"/>
                <path fill="#FFC477" fill-rule="nonzero" d="M71.77.214h8.433c2.329 0 4.217 1.888 4.217 4.217v8.434c0 2.329-1.888 4.216-4.217 4.216h-8.434c-2.329 0-4.217-1.887-4.217-4.216V4.43c0-2.329 1.888-4.217 4.217-4.217zM38.034 33.95h8.434c2.329 0 4.217 1.887 4.217 4.216V46.6c0 2.329-1.888 4.216-4.217 4.216h-8.434c-2.329 0-4.217-1.887-4.217-4.216v-8.434c0-2.329 1.888-4.217 4.217-4.217zM4.299 33.949h8.433c2.33 0 4.217 1.888 4.217 4.216V46.6c0 2.33-1.888 4.218-4.217 4.218H4.3c-2.33 0-4.217-1.888-4.217-4.218v-8.434c0-2.328 1.888-4.216 4.217-4.216z" transform="translate(66 84) translate(26.906 54.605)"/>
            </g>
            <path fill="#E86B1F" fill-rule="nonzero" d="M39.639 0h8.434c2.329 0 4.216 1.888 4.216 4.217v12.65H35.421V4.217c0-2.33 1.89-4.217 4.218-4.217zM90.24 0h8.434c2.33 0 4.217 1.888 4.217 4.217v12.65H86.024V4.217C86.024 1.887 87.912 0 90.24 0z" transform="translate(66 84)"/>
            <path fill="#FFD93C" fill-rule="nonzero" d="M5.904 33.735L132.41 33.735 132.41 37.952 5.904 37.952z" transform="translate(66 84)"/>
        </g>
        <g fill-rule="nonzero">
            <path fill="#FF8E9E" d="M46.718 18.446c4.202-4.202 4.237-11.045 0-15.281C44.762 1.209 42.06 0 39.078 0h-.003c-2.866 0-5.614 1.138-7.64 3.165L27.79 6.809l15.282 15.282 3.646-3.645z" transform="translate(157 164)"/>
            <path fill="#FFCE71" d="M43.072 22.091c0-4.219-1.71-8.04-4.475-10.805C35.83 8.52 32.01 6.81 27.79 6.81L13.164 21.435l15.28 15.284L43.072 22.09z" transform="translate(157 164)"/>
            <path fill="#FAD5CB" d="M28.444 36.719v-.004c0-4.218-1.71-8.038-4.474-10.803-2.765-2.766-6.586-4.477-10.806-4.477l-6.272 11.49 10.063 10.066 11.49-6.272z" transform="translate(157 164)"/>
            <path fill="#676FB2" d="M6.672 49.237l10.283-6.246c-1.487-4.795-5.269-8.578-10.063-10.066L.646 43.21c-1.044 1.72-.793 3.975.618 5.408l.03.03c1.433 1.411 3.66 1.633 5.378.589z" transform="translate(157 164)"/>
            <g>
                <path fill="#EA5B70" d="M42.182 7.7c1.622-1.62 3.821-2.532 6.114-2.532-.447-.729-.977-1.402-1.578-2.003C44.762 1.209 42.06 0 39.078 0c-2.868 0-5.618 1.139-7.645 3.166L27.79 6.81c4.22 0 8.04 1.711 10.807 4.477l3.585-3.585z" transform="translate(157 164)"/>
                <path fill="#FFB357" d="M38.596 11.286C35.831 8.52 32.01 6.81 27.79 6.81L13.164 21.435c4.22 0 8.041 1.711 10.806 4.477l14.626-14.626z" transform="translate(157 164)"/>
                <path fill="#FFD0C3" d="M20.805 29.078l3.165-3.166c-2.765-2.766-6.586-4.477-10.806-4.477l-6.272 11.49c2.328.723 4.49 2.01 6.272 3.794l7.641-7.641z" transform="translate(157 164)"/>
                <path fill="#32364F" d="M4.175 49.883c0-2.674 1.063-5.238 2.953-7.128l6.037-6.037c-1.727-1.727-3.87-3.047-6.272-3.793L.646 43.21c-1.044 1.72-.793 3.975.619 5.408.791.78 1.854 1.224 2.91 1.265z" transform="translate(157 164)"/>
            </g>
        </g>
        <path fill="#BAEBB3" d="M146.05 239.6C82.51 239.6 31 234.361 31 227.9c0-4.171 4.967-22.34 53.768-9.904 8.282 2.11 68.232 10.768 101.282-1.796 64.277-8.41 71.05 3.238 71.05 9.7-9.1 16.342-47.51 13.7-111.05 13.7z"/>
    </g>
</svg>
