<svg xmlns="http://www.w3.org/2000/svg" width="270" height="240" viewBox="0 0 270 240">
    <g fill="none" fill-rule="evenodd">
        <path fill="#F5FEF2" d="M68.228 125.286c18.35 21.474 30.585 49.085 56.888 59.515 18.35 6.75 40.983 6.75 52.605-10.43 23.857-35.587 37.314-81.604 82.58-89.58 1.751-.324 3.471-.474 5.158-.47 7.46-22.765 1.636-48.531-15.326-66.688-12.893-13.8-33.24-21.185-51.354-15.938-8.257 2.392-16.16 5.788-18.05 14.011-1.919 8.358-2.55 16.523-5.583 24.697-5.747 15.491-15.475 29.532-28.187 40.08-20.544 17.047-48.544 24.7-74.87 20.465-11.164-1.796-22.235-5.624-33.49-4.53-18.554 1.805-29.162 15.03-34.549 31.197 16.27-17.506 47.407-20.728 64.178-2.33"/>
        <path fill="#E2FFDE" d="M259.632 97.395c2.737-4.37 4.86-8.968 6.42-13.695-1.687-.004-3.407.146-5.16.467-45.264 7.93-58.721 53.676-82.577 89.053-11.622 17.079-34.254 17.079-52.605 10.37-26.303-10.37-38.536-37.818-56.887-59.166-16.77-18.29-47.907-15.088-64.177 2.315-4.63 13.816-5.404 29.794-4.041 42.586 2.793 26.225 18.335 68.6 50.973 62.598 9.879-1.816 20.008-1.555 30.05-1.286l148.917 3.978c3.709.1 6.996.366 10.15.26 4.186-.138 8.138-.93 12.533-3.63 6.658-4.092 12.003-10.378 14.707-17.717 4.179-11.347 1.899-24.82-5.78-34.172-6.285-7.65-15.753-12.578-20.686-21.156-5.578-9.7-4.043-22.087.494-32.312 4.537-10.225 11.727-19.01 17.669-28.493"/>
        <g fill-rule="nonzero">
            <path fill="#58595B" d="M74.431 74.861L94.477 74.861 101.477 138.652 65.431 138.652z" transform="translate(55 93)"/>
            <path fill="#85ACD0" d="M72.052 9.3C62.763.814 52.988-1.72 40.862 2.877 28.736 7.475 16.644 18.301 16.636 30.312v44.55h64.91v-44.55c.017-7.881-3.4-15.444-9.494-21.012z" transform="translate(55 93)"/>
            <path fill="#AFD8F6" d="M119.408 1.045H49.091c8.61-.01 16.872 3.405 22.961 9.494 6.089 6.089 9.504 14.35 9.493 22.961v42.407c39.447 6.024 60.097 8.115 61.952 6.275 11.29-10 13.1-37.256 8.366-50.773-4.734-13.518-14.605-27.083-32.455-30.364z" transform="translate(55 93)"/>
            <path fill="#85ACD0" d="M132.141 5.738c3.117 5.075 6.93 8.507 8.904 16.944v27.045c0 11.95-9.687 21.637-21.637 21.637H81.545v4.543c39.666 5.103 60.317 7.195 61.952 6.275 12.64-14.765 11.782-38.85 9.077-48.58-2.807-9.68-12.101-23.776-20.433-27.864zM16.636 74.861C7.324 81.542 2.19 86.145 1.234 88.671c-1.434 3.788-.22 5.346 0 5.561 1.91 1.648 3.417 1.937 5.41 2.266 1.33.219 21.018.219 59.064 0 2.292 0 3.885-1.123 5.899-2.565 5.168-3.675 8.48-10.032 9.938-19.072H16.636z" transform="translate(55 93)"/>
            <path fill="#6992B7" d="M65.318 71.861L81.545 71.861 81.545 74.861 65.318 74.861z" transform="translate(55 93)"/>
        </g>
        <path fill="#FFB452" fill-rule="nonzero" d="M63 125.464c-7.355 6.571-15.658 39.836-6 48.1 4.709 1.127 13.675-6.884 26.9-24.033-10.493-16.045-17.46-24.067-20.9-24.067z"/>
        <path fill="#FCBF6F" fill-rule="nonzero" d="M120.315 167.271l-19.896-17.75-4.652 4.165c-2.054 1.838-5.162 1.838-7.216 0l-4.652-4.165L57 173.564v.297l63.315-6.292v-.298z"/>
        <path fill="#FFB452" fill-rule="nonzero" d="M120.318 167.564c4.233-3.788 3.9-16.821-1-39.1l-18.9 21.067c13.267 12.22 19.9 18.231 19.9 18.033z"/>
        <path fill="#FCBF6F" fill-rule="nonzero" d="M83.91 149.52l4.652 4.166c2.054 1.838 5.162 1.838 7.216 0l4.64-4.165 18.896-20.783v-.284L63 125.18v.284l20.9 24.057h.01z"/>
        <path fill="#BAEBB3" d="M146.05 239.6C82.51 239.6 31 234.361 31 227.9c0-4.171 4.967-22.34 53.768-9.904 8.282 2.11 68.232 10.768 101.282-1.796 64.277-8.41 71.05 3.238 71.05 9.7-9.1 16.342-47.51 13.7-111.05 13.7z"/>
    </g>
</svg>
