<svg xmlns="http://www.w3.org/2000/svg" width="270" height="240" viewBox="0 0 270 240">
    <g fill="none" fill-rule="evenodd">
        <path fill="#F5FEF2" d="M68.228 125.286c18.35 21.474 30.585 49.085 56.888 59.515 18.35 6.75 40.983 6.75 52.605-10.43 23.857-35.587 37.314-81.604 82.58-89.58 1.751-.324 3.471-.474 5.158-.47 7.46-22.765 1.636-48.531-15.326-66.688-12.893-13.8-33.24-21.185-51.354-15.938-8.257 2.392-16.16 5.788-18.05 14.011-1.919 8.358-2.55 16.523-5.583 24.697-5.747 15.491-15.475 29.532-28.187 40.08-20.544 17.047-48.544 24.7-74.87 20.465-11.164-1.796-22.235-5.624-33.49-4.53-18.554 1.805-29.162 15.03-34.549 31.197 16.27-17.506 47.407-20.728 64.178-2.33"/>
        <path fill="#E2FFDE" d="M259.632 97.395c2.737-4.37 4.86-8.968 6.42-13.695-1.687-.004-3.407.146-5.16.467-45.264 7.93-58.721 53.676-82.577 89.053-11.622 17.079-34.254 17.079-52.605 10.37-26.303-10.37-38.536-37.818-56.887-59.166-16.77-18.29-47.907-15.088-64.177 2.315-4.63 13.816-5.404 29.794-4.041 42.586 2.793 26.225 18.335 68.6 50.973 62.598 9.879-1.816 20.008-1.555 30.05-1.286l148.917 3.978c3.709.1 6.996.366 10.15.26 4.186-.138 8.138-.93 12.533-3.63 6.658-4.092 12.003-10.378 14.707-17.717 4.179-11.347 1.899-24.82-5.78-34.172-6.285-7.65-15.753-12.578-20.686-21.156-5.578-9.7-4.043-22.087.494-32.312 4.537-10.225 11.727-19.01 17.669-28.493"/>
        <g>
            <path fill="#E0D1CD" d="M29.506 141.605c-7.724-.07-15.438-.27-23.137-.635C4.904 102.302-.45 58.315.031 15.41.022 16.006 2.439 13 2.439 13c36.874-1.357 146.445-6.678 156.319-7.521 15.328-1.309 26.402-2.254 30.109-2.515l7.918-.556.08 7.937c.01 1.073.044 3.158.089 6.037.201 12.833.62 39.536.53 64.035-.05 13.78-.26 24.823-.622 32.819-.7 15.458-1.834 18.227-4.08 20.512-1.499 1.524-3.482 2.366-5.588 2.37h-.281l-.302-.02c-.19-.015-.789-.048-2.208-.048-8.371 0-30.8 1.064-56.771 2.295-32.67 1.548-65.493 3.557-98.126 3.26" transform="translate(7 47)"/>
            <path fill="#FFFFFE" d="M31.915 139.197c-7.724-.07-15.438-.27-23.137-.635-1.66-41.455-6.9-83.78-6.34-125.561-.04 3.15 146.539-8.89 158.728-9.93 15.329-1.309 26.402-2.254 30.11-2.515L199.192 0l.08 7.937c.011 1.073.044 3.158.089 6.037.202 12.832.621 39.535.53 64.034-.05 13.782-.26 24.823-.622 32.82-.7 15.458-1.834 18.226-4.08 20.512-1.498 1.524-3.482 2.366-5.587 2.37h-.282l-.302-.02c-.19-.015-.788-.048-2.209-.048-8.37 0-30.799 1.064-56.769 2.295-32.671 1.548-65.493 3.556-98.126 3.26" transform="translate(7 47)"/>
            <path fill="#A1CBC2" d="M17.834 130.954c-2.568-32.943-4.77-65.817-6.618-98.82-.21-3.65-.408-7.298-.604-10.947.196 2.867 164.983-12.034 181.19-13.176.012 1.55.074 5.199.155 10.288.45 29.626 1.496 108.224-2.391 107.932-13.319-.978-171.378 9.214-171.732 4.723z" transform="translate(7 47)"/>
            <g fill="#FFFFFE">
                <path d="M.054 5.79c2.081 3.336 4.515 6.436 7.262 9.25.261.269.613-.02.57-.33L6.445 4.51l-.239.419L23.451.668l-.432-.33.004 2.999c0 .439.683.44.682 0L23.701.339c0-.226-.217-.382-.432-.329L6.025 4.271c-.195.048-.263.242-.238.42l1.441 10.2.57-.332C5.09 11.785 2.695 8.734.642 5.445c-.232-.371-.822-.03-.588.344" transform="translate(7 47) translate(67 47)"/>
                <path d="M13.434 7.313c3.23 1.457 6.21 3.413 8.823 5.807.323.296.807-.185.482-.482-2.655-2.433-5.679-4.433-8.961-5.913-.397-.179-.744.408-.344.588" transform="translate(7 47) translate(67 47)"/>
                <path d="M18.911 4.758c-.842 3.727-1.98 7.379-3.407 10.923-.165.407.495.584.657.181 1.427-3.544 2.566-7.195 3.407-10.923.096-.427-.56-.61-.657-.181" transform="translate(7 47) translate(67 47)"/>
            </g>
            <g fill="#FFFFFE">
                <path d="M2.26 1.844c1.755 2.444 3.862 4.6 6.26 6.416.339.256.666-.315.333-.568-2.303-1.743-4.34-3.835-6.026-6.18-.245-.34-.816-.013-.568.332" transform="translate(7 47) translate(30 33)"/>
                <path d="M9.826.114C6.882 3.86 3.63 7.354.104 10.56c-.314.286.152.75.466.466C4.095 7.82 7.347 4.326 10.29.579c.26-.33-.203-.798-.464-.465M10.54 6.112c.447-.4.974-.897 1.606-.94.404-.027 1.007.245.986.723-.013.307-.276.582-.454.811l-.713.918-1.484 1.912c-.14.18-.123.492.145.55 1.28.279 2.637.023 3.711-.732.344-.243.015-.813-.332-.568-.93.654-2.09.909-3.204.666l.145.55 1.841-2.372c.453-.583 1.217-1.296.946-2.114-.209-.63-.913-1.021-1.556-1.004-.835.023-1.513.607-2.102 1.135-.315.284.151.748.466.465" transform="translate(7 47) translate(30 33)"/>
            </g>
            <g fill="#FFFFFE">
                <path d="M11.208 2.461L1.49 10.238.113 11.341c-.33.264.138.727.465.465 3.24-2.593 6.48-5.185 9.718-7.778l1.377-1.102c.331-.264-.137-.727-.465-.465M3.66.882c-.415.638-.886 1.515-.389 2.243.208.304.522.531.895.565.424.036.742-.248.956-.583.427-.667.608-1.604.172-2.313C4.914.176 4.098-.217 3.407.13c-.674.338-.923 1.283-.423 1.866.116.135.347.118.465 0 .134-.134.117-.33 0-.465-.082-.097-.098-.246-.063-.385.028-.109.034-.124.096-.22.039-.062.026-.045.076-.098l.05-.047c.045-.04-.012.002.042-.033.144-.092.321-.116.513-.061.195.055.38.188.506.353.32.419.252 1.023.029 1.478-.058.12-.124.242-.204.348-.072.095-.151.156-.24.17.05-.008-.023 0-.035-.001-.064-.004.073.02-.036-.003l-.092-.029c-.099-.046-.167-.102-.23-.18-.161-.199-.174-.43-.103-.698.09-.332.284-.625.47-.911.232-.356-.337-.686-.567-.332M7.02 11.727c-.234.307-.339.72-.3 1.103.023.215.077.415.174.608.046.093.105.175.168.256.087.11.19.142.322.161.735.11 1.584-.07 2.066-.677.428-.536.473-1.34.057-1.902-.224-.303-.53-.484-.906-.524-.315-.035-.637.069-.888.257-.617.463-.918 1.276-1.066 2.007-.035.175.05.356.23.405.162.045.37-.055.405-.23.046-.228.107-.454.186-.673.043-.12.06-.163.102-.253.052-.11.109-.218.173-.321.03-.048.063-.093.094-.14.036-.052.012-.017.003-.006l.057-.067.1-.105.061-.057c.05-.047-.04.025.02-.017l.114-.072.071-.036c-.063.03-.01.004.008-.002.047-.014.093-.026.141-.037-.012.003-.07.005-.008.001l.111-.003.057.003c.09.006-.06-.019.029.006l.133.039c-.069-.026.047.026.067.039.01.006.081.058.021.01l.06.053.057.058.025.03.022.034.042.071.025.05c.044.077-.018-.06.011.024.02.053.037.106.05.162.005.019.025.155.018.08.004.048.008.095.008.142l-.003.086s-.01.093-.003.042c.007-.052-.007.04-.007.04l-.024.096-.022.067c-.025.086.031-.052-.01.027l-.069.123c-.043.067-.12.148-.21.23-.074.068.045-.028-.038.03l-.082.053c-.055.036-.114.066-.174.095-.094.046.054-.017-.044.02l-.095.032c-.065.02-.13.038-.196.052-.209.045-.529.043-.737 0l.145.085c-.124-.148-.199-.382-.2-.59l.002-.102.006-.059.012-.058.026-.1c.033-.105.082-.198.171-.314.108-.141.022-.368-.118-.45-.169-.099-.342-.023-.45.118" transform="translate(7 47) translate(127 23)"/>
            </g>
            <g fill="#FFFFFE">
                <path d="M3.698.378C2.488 4.524 1.221 8.652.012 12.798c-.098.333.422.476.52.143C1.742 8.796 3.008 4.667 4.218.52c.097-.333-.423-.475-.52-.143" transform="translate(7 47) translate(167 35)"/>
                <path d="M3.743.47c4.2 4.884 8.4 9.768 12.59 14.66.679.791 1.374 1.573 2.033 2.382.173.213.527-.017.45-.262-.106-.343-.292-.577-.604-.756-.302-.173-.574.293-.272.465.189.083.307.228.356.434l.45-.262c-1.67-2.055-3.445-4.032-5.17-6.04-2.554-2.977-5.111-5.953-7.669-8.928L4.124.089c-.227-.264-.607.119-.381.38" transform="translate(7 47) translate(167 35)"/>
                <path d="M.37 13.1c6.119 1.5 12.263 2.865 18.31 4.644.334.097.477-.423.144-.52C12.776 15.444 6.632 14.08.513 12.58c-.337-.082-.481.437-.144.52" transform="translate(7 47) translate(167 35)"/>
                <path d="M1.357 9.261c2.169.368 3.946 2.378 3.547 4.643-.06.339.46.485.52.143.446-2.536-1.44-4.884-3.923-5.305-.34-.058-.486.462-.144.52" transform="translate(7 47) translate(167 35)"/>
            </g>
            <g fill="#FFFFFE">
                <path d="M7.65 3.839c-2.23-.844-6.102-2.028-7.374.89-.635 1.459-.108 3.171.908 4.314 1.123 1.263 2.69 1.818 4.208 2.442 1.735.712 3.517 1.588 5.417 1.713.422.027.42-.63 0-.658-1.442-.095-2.838-.695-4.16-1.24-1.321-.546-2.742-.99-3.934-1.797C1.461 8.655.46 7.243.69 5.662c.2-1.376 1.337-2.103 2.65-2.136 1.419-.036 2.827.452 4.135.947.396.15.568-.485.175-.634" transform="translate(7 47) translate(30 112)"/>
                <path d="M7.891 4.156c.05-1.445.784-3.036 2.299-3.418.737-.187 1.592-.072 2.171.45.592.534.779 1.364.822 2.128.183 3.255-.953 6.654-2.658 9.386-.225.361.344.691.567.333 1.092-1.749 1.893-3.671 2.339-5.685.38-1.721.8-3.98.064-5.662C12.837.185 11.1-.36 9.617.237c-1.57.63-2.327 2.316-2.384 3.92-.014.422.644.422.658 0" transform="translate(7 47) translate(30 112)"/>
            </g>
        </g>
        <g>
            <g>
                <path fill="#E4E2DD" d="M57.889 0L44.621 18.563 58.875 21.436 60.277 15.039 57.889 0" transform="translate(51 98) translate(127.05 19.453)"/>
                <path fill="#FFFFFE" d="M21.454 12.552s36.047-1.155 37.821 6.21L23.82 17.305l-.375-1.37-1.991-3.382" transform="translate(51 98) translate(127.05 19.453)"/>
                <path fill="#74B96B" d="M23.445 15.933L1.991 51.351 31.511 51.361 56.074 17.73 23.445 15.933" transform="translate(51 98) translate(127.05 19.453)"/>
                <path fill="#6BAC62" d="M56.074 17.73s3.75 2.177 5.742.272L37.429 51.07s-2.441 2.573-5.918.29l24.563-33.63" transform="translate(51 98) translate(127.05 19.453)"/>
                <path fill="#FFFFFE" d="M26.022 23.735L22.429 29.404 40.137 30.268 43.976 24.77 26.022 23.735" transform="translate(51 98) translate(127.05 19.453)"/>
                <path fill="#E4E2DD" d="M23.445 15.933L21.454 12.552 0 47.969 1.991 51.351 23.445 15.933" transform="translate(51 98) translate(127.05 19.453)"/>
                <path fill="#FFFFFE" d="M61.816 18.002L60.73 0.039 57.889 0 59.182 19.383 60.396 19.2 61.816 18.002" transform="translate(51 98) translate(127.05 19.453)"/>
            </g>
            <g>
                <path fill="#1F1A2D" d="M48.289 22.805s.403 24.227 3.927 29.11c0 0-19.303 6.722-28.173-1.316 0 0-10.414 3.33-23.595-2.255 0 0-3.736-25.338 10.365-40.46l21.74 2.745L48.29 22.805" transform="translate(51 98) translate(64.437)"/>
                <path fill="#E5BBA0" d="M11.986 63.203l4.77-18.316s2.914.057 5.851 1.019c2.937.96 5.35.757 5.175 2.132l2.73-1.71-1.326 19.418c-.029.215-.034.43-.028.643l-17.294-2.632c.053-.18.097-.364.122-.554" transform="translate(51 98) translate(64.437)"/>
                <path fill="#1F1A2D" d="M6.173 18.663C4.57 30.675 12.618 41.66 24.15 43.199c11.53 1.54 22.381-6.882 23.985-18.895C49.737 12.292 41.776 1.728 30.244.19 18.715-1.35 7.778 6.65 6.175 18.663" transform="translate(51 98) translate(64.437)"/>
                <path fill="#F0C3A5" d="M11.448 18.952c-.885 6.634-.704 12.486-.303 16.676.394 4.101 2.623 7.228 6 9.957l.614.497c3.573 2.886 8.59 3.612 12.842 1.858 4.29-1.77 7.482-4.432 8.91-8.587 2.597-7.556 3.916-16.132 3.916-16.132s3.72-16.551-13.57-18.528C12.568 2.717 11.448 18.952 11.448 18.952" transform="translate(51 98) translate(64.437)"/>
                <path fill="#F0C3A5" d="M39.435 39.042c2.707 2.939 11.74-4.57 7.816-9.284-2.583-3.102-5.533 1.897-5.533 1.897l-.717 2.187-1.442 4.13-.353.923.229.147" transform="translate(51 98) translate(64.437)"/>
                <path fill="#1C1A25" d="M45.8 33.002c-.008-.025-.09-.292-.316-.579-.22-.284-.628-.6-1.207-.597-.436 0-.931.17-1.502.563-.572.396-1.23 1.02-2.005 1.975-.125.154-.102.38.053.505.153.125.38.101.505-.052.746-.919 1.363-1.497 1.855-1.836.493-.34.851-.437 1.094-.437.315.003.498.15.644.326.07.088.12.18.152.247l.034.079.006.018c.06.19.26.296.45.237.19-.058.296-.26.237-.449" transform="translate(51 98) translate(64.437)"/>
                <path fill="#F0C3A5" d="M11.04 35.251c-3.384 2.126-9.766-7.727-5.108-11.008 3.3-2.325 4.842 3.281 4.842 3.281l.117 2.299.308 4.365.1.982-.26.081" transform="translate(51 98) translate(64.437)"/>
                <path fill="#1C1A25" d="M7.088 28.139l-.024-.015.024.016v-.001l-.024-.015.024.016c.009-.015.1-.143.24-.254.141-.114.319-.204.529-.204.225.002.54.097.97.533.425.433.937 1.202 1.494 2.463.08.181.292.263.474.183.181-.08.263-.292.183-.474-.58-1.31-1.123-2.146-1.638-2.675-.512-.526-1.024-.75-1.483-.749-.453 0-.8.209-1.023.398-.224.191-.34.374-.352.393-.107.167-.058.39.11.496.168.107.39.057.496-.111" transform="translate(51 98) translate(64.437)"/>
                <path fill="#1F1A2D" d="M34.912 10.5s-9.488 8.217-26.457 9.139c0 0 .759-18.346 17.674-17.711 0 0 5.964-1.373 8.783 8.571" transform="translate(51 98) translate(64.437)"/>
                <path fill="#1F1A2D" d="M29.687 10.665s4.318 8.858 15.555 14.16c0 0 3.658-15.195-12.262-21.242 0 0-.074-1.55-3.293 7.082" transform="translate(51 98) translate(64.437)"/>
                <path fill="#1C1A25" d="M27.599 31.92l-.001 1.926v.002c0 .07-.036.154-.13.233-.094.077-.238.135-.399.134l-.14-.013-.013-.002-1.097-.173c-.197-.031-.38.103-.411.3-.031.195.103.379.299.41l1.098.173.056-.355-.07.352c.094.018.187.027.278.027.327 0 .627-.11.855-.298.228-.186.392-.466.392-.788l.001-1.929c0-.198-.16-.359-.36-.359-.197 0-.358.16-.358.36" transform="translate(51 98) translate(64.437)"/>
                <path fill="#1F1A2D" d="M36.923 22.418s-3.335-1.694-3.959-.256c0 0-.397.984 2.538 2.402 2.936 1.418 3.812 1.508 4.462.696.65-.812-1.424-2.176-3.041-2.842M21.417 19.536s3.703-.527 3.83 1.035c0 0 .057 1.06-3.178 1.454-3.236.395-4.98.103-5.333-.876-.354-.978 2.935-1.504 4.68-1.613" transform="translate(51 98) translate(64.437)"/>
                <path fill="#FFFFFE" d="M30.657 37.806l-9.229-1.403s-.432 3.215 3.898 3.867c3.663.551 5.331-2.464 5.331-2.464M25.416 29.252l-.532-.09c-.488 2.892-2.998 4.94-5.835 4.94-.328 0-.66-.028-.995-.084-2.893-.488-4.94-2.999-4.94-5.836 0-.328.028-.66.084-.994.488-2.893 2.998-4.94 5.835-4.94.328 0 .66.027.995.084 2.893.487 4.94 2.998 4.94 5.835 0 .328-.028.66-.084.995l.532.09.53.09c.067-.395.1-.787.1-1.175 0-3.357-2.419-6.32-5.838-6.898-.395-.067-.787-.099-1.175-.099-3.358 0-6.32 2.419-6.898 5.838-.066.394-.099.787-.099 1.174 0 3.358 2.42 6.32 5.839 6.899.394.066.786.099 1.174.099 3.358 0 6.32-2.42 6.898-5.839l-.531-.089M41.646 32.239l-.532-.087c-.47 2.907-2.87 4.938-5.553 4.936-.31 0-.626-.027-.943-.083-1.373-.243-2.544-.985-3.38-2.028-.835-1.043-1.326-2.384-1.326-3.808 0-.33.026-.663.08-.998.47-2.907 2.87-4.938 5.554-4.937.31 0 .626.028.943.084 1.373.243 2.544.985 3.38 2.028.835 1.042 1.326 2.383 1.326 3.808 0 .328-.026.662-.08.998l.531.087.532.085c.063-.393.094-.784.094-1.17 0-1.673-.575-3.25-1.562-4.482-.985-1.233-2.39-2.126-4.033-2.416-.38-.067-.758-.1-1.13-.1-3.238.002-6.07 2.437-6.618 5.843-.064.392-.095.784-.095 1.17 0 1.673.576 3.249 1.563 4.482.985 1.233 2.39 2.126 4.034 2.415.379.067.757.1 1.13.1 3.237-.001 6.069-2.436 6.617-5.842l-.532-.085" transform="translate(51 98) translate(64.437)"/>
                <path fill="#FFFFFE" d="M25.69 29.523h.001c.044-.017.662-.22 1.428-.22.681.001 1.456.155 2.117.688.232.187.572.15.758-.082.187-.231.15-.571-.082-.758-.912-.733-1.956-.926-2.793-.925-1.013.001-1.76.272-1.795.283-.28.101-.425.41-.324.69.1.28.41.425.69.324" transform="translate(51 98) translate(64.437)"/>
                <path fill="#FFFFFE" d="M30.648 35.12s-1.797-2.227-1.361-5.094c.088.056.188.084.287.084.158 0 .314-.069.42-.2.03-.037.053-.076.071-.116-.028.124-.052.25-.073.377-.054.335-.08.668-.08.998 0 1.233.369 2.405 1.01 3.374l-.274.577m-.535-5.523c.008-.166-.061-.333-.2-.446-.113-.09-.228-.173-.344-.247.134-.376.311-.758.538-1.144 1.722-2.922 4.016-3.28 5.036-3.28.33 0 .526.038.526.038l-.342.72c-2.415.1-4.56 1.838-5.214 4.36" transform="translate(51 98) translate(64.437)"/>
            </g>
            <g>
                <path fill="#FFA228" d="M121.991 104.804c3.211 3.744 10.218 3.333 13.71-.15 2.795-2.787 3.296-7.134 1.21-10.484l-24.457-36.49L90.33 68.536l31.662 36.268z" transform="translate(51 98) translate(0 7.903)"/>
                <path fill="#F0C3A5" d="M150.022 68.742s.724-5.07 9.575-5.825c0 0 3.057-.532 5.002-6.167.523-1.515 1.917-2.557 3.519-2.502 3.277.113 7.931 1.407 5.714 8.273-3.294 10.196-5.057 9.092-15.37 10.367l-8.44-4.146" transform="translate(51 98) translate(0 7.903)"/>
                <path fill="#FFA228" d="M148.793 64.675c3.696-1.764.704 2.563 10.234 8.716-3.185 7.918-19.01 29.018-23.477 31.333-4.277 1.467-8.159-4.4-11.645-17.599 9.525-3.257 17.82-10.74 24.888-22.45z" transform="translate(51 98) translate(0 7.903)"/>
                <path fill="#EE9A53" d="M129.862 84.24L124.699 88.896 125.111 89.354 130.274 84.697" transform="translate(51 98) translate(0 7.903)"/>
                <path fill="#FFA228" d="M99.988 51.872l10.558 4.455c1.568.661 2.81 2.063 2.948 3.76 2.011 24.613 1.028 63.16 1.028 63.16l-21.05-2.476c1.722-22.331 5.19-57.223 3.455-66.506-.222-1.192 3.199-1.746 3.06-2.393" transform="translate(51 98) translate(0 7.903)"/>
                <path fill="#EE9A53" d="M115.057 96.511l.001-.409c0-2.558-.062-16.65-1.38-29.353l-.613.063c1.315 12.662 1.378 26.743 1.377 29.29v.406l.615.003" transform="translate(51 98) translate(0 7.903)"/>
                <path fill="#FFFFFE" d="M99.988 51.872s7.928 9.593 7.928 22.331c0 0 1.002 10.809-6.518 19.29l2.553 23.698H66.183V45.617l33.805 6.255" transform="translate(51 98) translate(0 7.903)"/>
                <path fill="#F0C3A5" d="M94.014 48.73l5.974 3.142s.985 11.224-12.11 8.915c-13.082-2.307-14.924-15.17-14.924-15.17l5.65.582 15.41 2.53" transform="translate(51 98) translate(0 7.903)"/>
                <path fill="#FFA228" d="M72.954 45.617l-10.865-.76c-2.446-.317-4.747 1.23-5.376 3.616L51.186 61.64s2.267 33.834-1.31 59.015l20.927 3.207s11.239-47.325 2.151-78.245" transform="translate(51 98) translate(0 7.903)"/>
                <path fill="#FFA228" d="M59.61 45.18L8.449 59.627C3.673 60.86.955 67.333 2.544 72.002c1.271 3.736 4.953 6.1 8.88 5.703l46.552-7.163L59.61 45.18" transform="translate(51 98) translate(0 7.903)"/>
                <path fill="#EE9A53" d="M51.692 71.795L58.021 70.847 57.93 70.238 51.601 71.187" transform="translate(51 98) translate(0 7.903)"/>
                <path fill="#F0C3A5" d="M17.2 18.262L15.703 2.095C15.59.68 14.223-.287 12.852.077c-1.046.278-1.75 1.252-1.688 2.332l1.184 17.141 4.852-1.288" transform="translate(51 98) translate(0 7.903)"/>
                <path fill="#F0C3A5" d="M13.464 11.737s-6.961 1.97-11.444 4.516C.893 16.893.137 17.975.05 19.176c-.21 2.845.072 8.636 4.571 14.47l11.086-.862-.626-18.953-1.616-2.094" transform="translate(51 98) translate(0 7.903)"/>
                <path fill="#F0C3A5" d="M15.706 32.784l3.125-8.468c.21-.57.207-1.194-.007-1.761L17.2 18.262c-.437-1.156-1.65-1.823-2.86-1.574L7.5 18.094c-1.14.303-1.834 1.458-1.566 2.608.243 1.039 1.2 1.75 2.265 1.684l3.194-.202s-3.41 1.28-4.225 7.62l8.538 2.98" transform="translate(51 98) translate(0 7.903)"/>
                <path fill="#BA7C60" d="M17.226 17.942c-.01-.025-.16-.42-.529-.83-.363-.409-.975-.84-1.84-.838-.186 0-.383.02-.59.062-1.461.3-4.06.803-5.913 1.16-1.215.234-2.055 1.295-2.055 2.485 0 .171.017.344.053.518.242 1.17 1.267 2.011 2.462 2.022l2.576.023.003-.36-.12-.339c-.042.015-.866.314-1.809 1.353-.944 1.038-2 2.812-2.526 5.742-.036.195.094.382.29.417.195.035.381-.095.417-.29.508-2.816 1.503-4.451 2.35-5.386.426-.467.815-.76 1.093-.935.14-.087.25-.145.324-.18l.082-.036.017-.006v-.001c.165-.057.265-.226.236-.398-.028-.172-.177-.299-.351-.3l-2.576-.023c-.856-.007-1.59-.61-1.764-1.449-.026-.125-.038-.249-.038-.372 0-.851.601-1.614 1.472-1.78 1.855-.356 4.452-.86 5.922-1.161.161-.033.31-.048.445-.048.62.003 1.023.29 1.306.6.139.154.24.312.304.428.032.058.055.105.07.138l.015.034.002.007.05-.02-.05.02.05-.02-.05.02c.071.185.279.278.464.207.186-.07.279-.279.208-.464" transform="translate(51 98) translate(0 7.903)"/>
                <path fill="#FFA228" d="M2.913 33.727c1.235-1.925 10.613-3.26 13.937-2.821.76 1.88 2.592 14.236 5.495 37.065L2.35 71.49c-.173-24.007.015-36.595.564-37.762z" transform="translate(51 98) translate(0 7.903)"/>
                <path fill="#EE9A53" d="M20.919 56.129L21.623 64.823 22.236 64.773 21.533 56.079" transform="translate(51 98) translate(0 7.903)"/>
            </g>
        </g>
        <path fill="#BAEBB3" d="M146.05 239.6C82.51 239.6 31 234.361 31 227.9c0-4.171 4.967-22.34 53.768-9.904 8.282 2.11 68.232 10.768 101.282-1.796 64.277-8.41 71.05 3.238 71.05 9.7-9.1 16.342-47.51 13.7-111.05 13.7z"/>
    </g>
</svg>
