<svg xmlns="http://www.w3.org/2000/svg" width="270" height="240" viewBox="0 0 270 240">
    <g fill="none" fill-rule="evenodd">
        <path fill="#F5FEF2" d="M68.228 125.286c18.35 21.474 30.585 49.085 56.888 59.515 18.35 6.75 40.983 6.75 52.605-10.43 23.857-35.587 37.314-81.604 82.58-89.58 1.751-.324 3.471-.474 5.158-.47 7.46-22.765 1.636-48.531-15.326-66.688-12.893-13.8-33.24-21.185-51.354-15.938-8.257 2.392-16.16 5.788-18.05 14.011-1.919 8.358-2.55 16.523-5.583 24.697-5.747 15.491-15.475 29.532-28.187 40.08-20.544 17.047-48.544 24.7-74.87 20.465-11.164-1.796-22.235-5.624-33.49-4.53-18.554 1.805-29.162 15.03-34.549 31.197 16.27-17.506 47.407-20.728 64.178-2.33"/>
        <path fill="#E2FFDE" d="M259.632 97.395c2.737-4.37 4.86-8.968 6.42-13.695-1.687-.004-3.407.146-5.16.467-45.264 7.93-58.721 53.676-82.577 89.053-11.622 17.079-34.254 17.079-52.605 10.37-26.303-10.37-38.536-37.818-56.887-59.166-16.77-18.29-47.907-15.088-64.177 2.315-4.63 13.816-5.404 29.794-4.041 42.586 2.793 26.225 18.335 68.6 50.973 62.598 9.879-1.816 20.008-1.555 30.05-1.286l148.917 3.978c3.709.1 6.996.366 10.15.26 4.186-.138 8.138-.93 12.533-3.63 6.658-4.092 12.003-10.378 14.707-17.717 4.179-11.347 1.899-24.82-5.78-34.172-6.285-7.65-15.753-12.578-20.686-21.156-5.578-9.7-4.043-22.087.494-32.312 4.537-10.225 11.727-19.01 17.669-28.493"/>
        <g>
            <path fill="#FFC477" fill-rule="nonzero" d="M125.844 165.244c-.004 5.321-3.494 9.634-7.799 9.64H8.855c-4.306-.006-7.795-4.319-7.8-9.64V36.713c.005-5.322 3.494-9.634 7.8-9.64h23.398c0-.129 62.394 0 62.394 0h23.398c4.305.006 7.795 4.318 7.8 9.64v128.53z" transform="translate(72 51)"/>
            <path fill="#FEFF26" fill-rule="nonzero" d="M57.468 76.546l-.928 5.686c-.112.688.18 1.38.75 1.783.57.401 1.32.442 1.93.105l4.75-2.625 4.75 2.624c.611.338 1.361.297 1.932-.105.57-.402.86-1.094.749-1.783l-.927-5.686 3.913-4.01c.477-.49.64-1.204.423-1.852-.217-.647-.777-1.119-1.452-1.222l-5.335-.815-2.403-5.118c-.3-.64-.943-1.049-1.65-1.049-.706 0-1.35.409-1.65 1.049l-2.402 5.118-5.334.815c-.675.103-1.236.575-1.453 1.222-.217.648-.054 1.362.423 1.851l3.914 4.012zM31.434 76.546l-.927 5.686c-.112.688.179 1.38.75 1.783.57.401 1.32.442 1.93.105l4.75-2.625 4.75 2.624c.611.338 1.361.297 1.931-.105.571-.402.862-1.094.75-1.783l-.927-5.686 3.913-4.01c.477-.49.64-1.204.423-1.852-.217-.647-.778-1.119-1.453-1.222l-5.334-.815-2.403-5.118c-.3-.64-.943-1.049-1.65-1.049-.706 0-1.35.409-1.65 1.049l-2.402 5.118-5.334.815c-.675.103-1.236.575-1.453 1.222-.217.648-.054 1.362.423 1.851l3.913 4.012zM82.46 76.546l-.928 5.686c-.112.688.179 1.38.75 1.783.57.401 1.32.442 1.93.105l4.75-2.625 4.75 2.624c.61.338 1.36.298 1.931-.104.57-.402.862-1.095.75-1.784l-.928-5.686 3.914-4.01c.476-.49.64-1.204.423-1.851-.217-.648-.777-1.12-1.452-1.223l-5.336-.815-2.402-5.118c-.3-.64-.943-1.049-1.65-1.049-.706 0-1.35.409-1.65 1.049l-2.402 5.118-5.335.815c-.675.103-1.235.575-1.452 1.222-.217.648-.054 1.362.423 1.851l3.913 4.012z" transform="translate(72 51)"/>
            <path fill="#FFF" fill-rule="nonzero" d="M14.054 110.895h31.198c1.435 0 2.6-1.164 2.6-2.6 0-1.435-1.165-2.6-2.6-2.6H14.054c-1.435 0-2.6 1.165-2.6 2.6 0 1.436 1.165 2.6 2.6 2.6zM112.845 105.696H55.651c-1.436 0-2.6 1.164-2.6 2.6 0 1.435 1.164 2.6 2.6 2.6h57.194c1.436 0 2.6-1.165 2.6-2.6 0-1.436-1.164-2.6-2.6-2.6zM112.845 116.095h-98.79c-1.436 0-2.6 1.164-2.6 2.6 0 1.435 1.164 2.6 2.6 2.6h98.79c1.436 0 2.6-1.165 2.6-2.6 0-1.436-1.164-2.6-2.6-2.6zM14.054 131.693H76.45c1.436 0 2.6-1.164 2.6-2.6 0-1.435-1.164-2.6-2.6-2.6H14.054c-1.435 0-2.6 1.165-2.6 2.6 0 1.436 1.165 2.6 2.6 2.6zM112.845 126.494H86.848c-1.436 0-2.6 1.164-2.6 2.6 0 1.435 1.164 2.6 2.6 2.6h25.997c1.436 0 2.6-1.165 2.6-2.6 0-1.436-1.164-2.6-2.6-2.6zM112.845 136.893h-98.79c-1.436 0-2.6 1.164-2.6 2.6 0 1.435 1.164 2.6 2.6 2.6h98.79c1.436 0 2.6-1.165 2.6-2.6 0-1.436-1.164-2.6-2.6-2.6z" transform="translate(72 51)"/>
            <g transform="translate(72 51) translate(37.417)">
                <circle cx="25.686" cy="25.686" r="25.686" fill="#FFA228"/>
                <path fill="#FFF" fill-rule="nonzero" d="M15.599 19.446c0-5.743 4.656-10.399 10.399-10.399 5.743 0 10.399 4.656 10.399 10.4 0 5.743-4.656 10.398-10.4 10.398-5.74-.006-10.392-4.658-10.398-10.399zM44.647 43.003c-5.553 5.828-11.892 8.368-18.856 8.368-6.965 0-13.909-2.734-18.807-8.094 4.615-5.35 11.961-8.651 19.014-8.232 7.053-.419 14.034 2.608 18.65 7.958z"/>
            </g>
        </g>
        <path fill="#BAEBB3" d="M146.05 239.6C82.51 239.6 31 234.361 31 227.9c0-4.171 4.967-22.34 53.768-9.904 8.282 2.11 68.232 10.768 101.282-1.796 64.277-8.41 71.05 3.238 71.05 9.7-9.1 16.342-47.51 13.7-111.05 13.7z"/>
    </g>
</svg>
