<svg xmlns="http://www.w3.org/2000/svg" width="270" height="240" viewBox="0 0 270 240">
    <g fill="none" fill-rule="evenodd">
        <path fill="#F5FEF2" d="M68.228 125.286c18.35 21.474 30.585 49.085 56.888 59.515 18.35 6.75 40.983 6.75 52.605-10.43 23.857-35.587 37.314-81.604 82.58-89.58 1.751-.324 3.471-.474 5.158-.47 7.46-22.765 1.636-48.531-15.326-66.688-12.893-13.8-33.24-21.185-51.354-15.938-8.257 2.392-16.16 5.788-18.05 14.011-1.919 8.358-2.55 16.523-5.583 24.697-5.747 15.491-15.475 29.532-28.187 40.08-20.544 17.047-48.544 24.7-74.87 20.465-11.164-1.796-22.235-5.624-33.49-4.53-18.554 1.805-29.162 15.03-34.549 31.197 16.27-17.506 47.407-20.728 64.178-2.33"/>
        <path fill="#E2FFDE" d="M259.632 97.395c2.737-4.37 4.86-8.968 6.42-13.695-1.687-.004-3.407.146-5.16.467-45.264 7.93-58.721 53.676-82.577 89.053-11.622 17.079-34.254 17.079-52.605 10.37-26.303-10.37-38.536-37.818-56.887-59.166-16.77-18.29-47.907-15.088-64.177 2.315-4.63 13.816-5.404 29.794-4.041 42.586 2.793 26.225 18.335 68.6 50.973 62.598 9.879-1.816 20.008-1.555 30.05-1.286l148.917 3.978c3.709.1 6.996.366 10.15.26 4.186-.138 8.138-.93 12.533-3.63 6.658-4.092 12.003-10.378 14.707-17.717 4.179-11.347 1.899-24.82-5.78-34.172-6.285-7.65-15.753-12.578-20.686-21.156-5.578-9.7-4.043-22.087.494-32.312 4.537-10.225 11.727-19.01 17.669-28.493"/>
        <g transform="translate(89 63)">
            <rect width="110" height="152.192" y="10.548" fill="#85ACD0" rx="10.154"/>
            <rect width="85.137" height="118.288" x="12.808" y="27.123" fill="#FFF" rx="7.811"/>
            <path fill="#D0D3D5" fill-rule="nonzero" d="M40.494 64.795h-15.44c-1.354 0-2.451-1.098-2.451-2.451V46.903c0-1.354 1.097-2.45 2.45-2.45h15.441c1.354 0 2.451 1.096 2.451 2.45v15.44c0 1.354-1.097 2.452-2.45 2.452zm-12.99-4.902h10.54v-10.54h-10.54v10.54z"/>
            <g fill="#E5E8EA" fill-rule="nonzero">
                <path d="M18.25 5.08H2.587C1.215 5.08.102 3.967.102 2.594.102 1.22 1.215.108 2.588.108h15.661c1.373 0 2.486 1.113 2.486 2.486 0 1.373-1.113 2.486-2.486 2.486zM37.64 14.775H2.587c-1.373 0-2.486-1.113-2.486-2.486 0-1.373 1.113-2.486 2.486-2.486h35.051c1.373 0 2.486 1.113 2.486 2.486 0 1.373-1.113 2.486-2.486 2.486z" transform="translate(47.466 47.466)"/>
            </g>
            <path fill="#D0D3D5" fill-rule="nonzero" d="M40.494 94.932h-15.44c-1.354 0-2.451-1.098-2.451-2.451V77.04c0-1.354 1.097-2.451 2.45-2.451h15.441c1.354 0 2.451 1.097 2.451 2.45v15.442c0 1.353-1.097 2.45-2.45 2.45zm-12.99-4.902h10.54V79.49h-10.54v10.54z"/>
            <path fill="#E86B1F" d="M33.572 88.904c-.289-.464-.578-.927-.866-1.392-1.891-3.038-5.76-5.752-7.09-6.543l.991-1.78c1.574.936 4.776 3.25 6.932 5.999 2.977-4.092 7.376-8.314 13.404-12.86l1.276 1.68c-6.436 4.857-10.94 9.308-13.78 13.588l-.867 1.308"/>
            <g fill="#E5E8EA" fill-rule="nonzero">
                <path d="M18.25 5.08H2.587C1.215 5.08.102 3.967.102 2.594.102 1.22 1.215.108 2.588.108h15.661c1.373 0 2.486 1.113 2.486 2.486 0 1.373-1.113 2.486-2.486 2.486zM37.64 14.775H2.587c-1.373 0-2.486-1.113-2.486-2.486 0-1.373 1.113-2.486 2.486-2.486h35.051c1.373 0 2.486 1.113 2.486 2.486 0 1.373-1.113 2.486-2.486 2.486z" transform="translate(47.466 77.603)"/>
            </g>
            <path fill="#D0D3D5" fill-rule="nonzero" d="M40.494 125.068h-15.44c-1.354 0-2.451-1.097-2.451-2.45v-15.441c0-1.354 1.097-2.451 2.45-2.451h15.441c1.354 0 2.451 1.097 2.451 2.45v15.442c0 1.353-1.097 2.45-2.45 2.45zm-12.99-4.901h10.54v-10.54h-10.54v10.54z"/>
            <g fill="#E5E8EA" fill-rule="nonzero">
                <path d="M18.25 5.08H2.587C1.215 5.08.102 3.967.102 2.594.102 1.22 1.215.108 2.588.108h15.661c1.373 0 2.486 1.113 2.486 2.486 0 1.373-1.113 2.486-2.486 2.486zM37.64 14.775H2.587c-1.373 0-2.486-1.113-2.486-2.486 0-1.373 1.113-2.486 2.486-2.486h35.051c1.373 0 2.486 1.113 2.486 2.486 0 1.373-1.113 2.486-2.486 2.486z" transform="translate(47.466 107.74)"/>
            </g>
            <g fill-rule="nonzero" transform="translate(30.89)">
                <path fill="#AFD8F6" d="M48.22 11.12v15.9c0 2.971-2.412 5.377-5.389 5.377H5.388C2.411 32.397 0 29.991 0 27.02v-15.9c0-2.97 2.411-5.377 5.388-5.377h9.427C16.515 2.34 20.04 0 24.11 0c.633 0 1.254.057 1.854.165 2.85.511 5.292 2.184 6.823 4.507.02.03.037.057.054.086.146.225.285.457.411.694.057.104.109.202.153.291h9.427c2.976 0 5.387 2.406 5.387 5.378z"/>
                <circle cx="24.11" cy="9.041" r="3.767" fill="#85ACD0"/>
                <path fill="#85ACD0" d="M38.048 24.863H10.925c-1.457 0-2.637-1.18-2.637-2.637 0-1.456 1.18-2.637 2.637-2.637h27.123c1.456 0 2.637 1.18 2.637 2.637 0 1.456-1.18 2.637-2.637 2.637z"/>
            </g>
        </g>
        <path fill="#BAEBB3" d="M146.05 239.6C82.51 239.6 31 234.361 31 227.9c0-4.171 4.967-22.34 53.768-9.904 8.282 2.11 68.232 10.768 101.282-1.796 64.277-8.41 71.05 3.238 71.05 9.7-9.1 16.342-47.51 13.7-111.05 13.7z"/>
    </g>
</svg>
