<svg xmlns="http://www.w3.org/2000/svg" width="150" height="150" viewBox="0 0 150 150">
    <defs>
        <linearGradient id="c88xl3lq3a" x1="0%" x2="100%" y1="50%" y2="50%">
            <stop offset="0%" stop-color="#AEDBA0"/>
            <stop offset="100%" stop-color="#72A065"/>
        </linearGradient>
        <linearGradient id="qme2uq9e2b" x1="50.117%" x2="51.066%" y1="62.634%" y2="164.929%">
            <stop offset="8.98%" stop-color="#EEE"/>
            <stop offset="81.78%" stop-color="#D6D7D8"/>
        </linearGradient>
        <linearGradient id="053s1mxh2c" x1="117.615%" x2="45.727%" y1="17.576%" y2="52.819%">
            <stop offset="0%" stop-color="#274992"/>
            <stop offset="100%" stop-color="#1C2F58"/>
        </linearGradient>
        <linearGradient id="5d9jmdsekd" x1="29.745%" x2="45.231%" y1="-131.402%" y2="3.851%">
            <stop offset="0%" stop-color="#FFBEB6"/>
            <stop offset="100%" stop-color="#F2A19C"/>
        </linearGradient>
        <linearGradient id="hvrc2irple" x1="45.28%" x2="-2.758%" y1="44.72%" y2="79.07%">
            <stop offset="0%" stop-color="#FFBEB6"/>
            <stop offset="100%" stop-color="#F2A19C"/>
        </linearGradient>
        <linearGradient id="62szq1awff" x1="42.192%" x2="56.637%" y1="21.752%" y2="71.752%">
            <stop offset="0%" stop-color="#FFF"/>
            <stop offset="100%" stop-color="#B5BEC9"/>
        </linearGradient>
        <linearGradient id="sv8be5opwg" x1="37.538%" x2="54.387%" y1="26.939%" y2="107.539%">
            <stop offset="0%" stop-color="#FFF"/>
            <stop offset="100%" stop-color="#B5BEC9"/>
        </linearGradient>
    </defs>
    <g fill="none" fill-rule="evenodd">
        <g>
            <g>
                <g>
                    <path d="M0 0H150V150H0z" transform="translate(-105 -295) translate(105 295)"/>
                    <g fill-rule="nonzero">
                        <g>
                            <path fill="url(#c88xl3lq3a)" d="M.088 92.323h26.477c10.03 0 18.16 8.16 18.16 18.226v27.306H18.25c-10.03 0-18.16-8.16-18.16-18.226V92.323z" transform="translate(-105 -295) translate(105 295) translate(21 6)"/>
                            <path fill="url(#qme2uq9e2b)" d="M53.411.2h51.566c2.21 0 4.001 1.797 4.001 4.015v75.453c0 2.218-1.791 4.016-4 4.016H53.41c-2.21 0-4.001-1.798-4.001-4.016V4.215C49.41 1.997 51.2.199 53.41.199z" transform="translate(-105 -295) translate(105 295) translate(21 6)"/>
                            <path fill="#FFF" d="M92.226 29.859H66.827c-1.955 0-3.539 1.59-3.539 3.551v5.403s-.125 16.498 0 16.355c.115-.132 5.23-6.311 6.357-7.37l19.741-.046h2.84c1.955 0 3.539-1.59 3.539-3.552V33.41c0-1.961-1.584-3.551-3.539-3.551z" transform="translate(-105 -295) translate(105 295) translate(21 6)"/>
                            <path fill="#EB5757" d="M82.398 41.16l-2.08-2.087 2.08-2.088c.31-.312.31-.816 0-1.128-.31-.31-.811-.31-1.122-.002 0 .001 0 .002-.002.002l-2.08 2.088-2.08-2.088c-.31-.31-.812-.31-1.122-.002l-.002.002c-.31.312-.31.816 0 1.128l2.08 2.088-2.08 2.088c-.31.311-.31.816 0 1.127.31.31.811.312 1.122.002l.002-.002 2.08-2.087 2.08 2.087c.31.31.812.312 1.122.002l.002-.002c.31-.311.31-.816 0-1.127z" transform="translate(-105 -295) translate(105 295) translate(21 6)"/>
                            <path fill="#FFF" d="M57.762 3.601c.032.014.069-.001.082-.033.014-.032 0-.069-.033-.082-.032-.014-.068 0-.082.033-.014.032.001.069.033.082zm.589-1.417c.033.013.07-.001.086-.033.012-.033-.004-.07-.037-.082-.03-.015-.065-.003-.08.026l-.002.007c-.014.032.001.068.033.082zm.593-1.418c.032.014.069 0 .082-.033.013-.033-.001-.07-.033-.086-.034-.011-.071.005-.086.038-.012.033.005.069.037.081zm5.23 2.819c.013.033.05.05.083.036.03-.01.046-.045.035-.075 0-.003-.002-.005-.003-.008-.012-.032-.047-.048-.08-.036-.032.013-.048.05-.035.083zm-8.614-2.47c.024.024.062.025.087 0 .024-.023.024-.062 0-.086-.023-.025-.062-.025-.086-.001-.024.021-.027.058-.005.082 0 .002.002.003.004.005zm5.366 2.269c.003.035.03.063.066.065.036 0 .064-.03.064-.067 0-.035-.03-.064-.065-.064-.035.002-.063.03-.065.066zm.005-1.536c.001.034.03.061.065.06.033.003.062-.022.065-.056v-.005c0-.036-.03-.064-.065-.065-.035.002-.063.03-.065.066zm-9.322.224c.044.051.12.056.17.013.051-.044.057-.12.013-.172-.043-.05-.117-.056-.166-.013h-.001c-.05.045-.057.12-.016.172zm6.523 9.207c-.004.066.047.123.113.128.063.007.12-.04.127-.103v-.006c.004-.067-.046-.124-.112-.128-.066-.005-.123.043-.128.109zm.202-2.903c-.004.067.047.124.113.127.066.004.123-.047.127-.112.005-.066-.043-.124-.109-.129-.066-.002-.124.047-.131.114zm.205-2.908c-.005.065.044.122.11.128h.004c.063.007.12-.039.127-.103v-.006c.003-.067-.047-.125-.113-.132-.066-.004-.123.047-.128.113zm.203-2.903c-.004.066.047.123.113.127.066.003.123-.047.127-.113.005-.065-.043-.123-.109-.128-.066-.006-.125.042-.131.109v.005zM52.616 8.43c.06.027.13 0 .158-.059.028-.06.001-.13-.058-.158-.059-.027-.128-.003-.157.055-.028.06-.002.132.057.162zm1.296-2.607c.06.027.13 0 .158-.059.027-.06.001-.131-.058-.158-.059-.027-.128-.003-.157.055-.028.06-.002.132.057.162zM55.21 3.22c.06.028.134.002.162-.06.028-.059.004-.13-.054-.16-.06-.031-.133-.008-.165.052-.031.06-.008.134.052.165l.005.003zM56.504.609c.058.031.13.009.16-.05l.002-.002c.03-.059.008-.131-.05-.162-.059-.03-.13-.008-.161.051l-.003.006c-.03.055-.01.124.045.154l.007.003zm7.123 8.628c.023.062.09.096.154.074.061-.02.095-.086.075-.148v-.001c-.017-.062-.08-.099-.142-.082l-.008.002c-.062.024-.096.09-.079.155zm-.918-2.765c.023.062.09.096.153.079.063-.023.096-.091.074-.154-.02-.063-.088-.096-.15-.075h-.003c-.062.02-.095.087-.075.149v.001zm-.918-2.76c.018.06.082.095.143.076l.006-.001c.063-.02.098-.086.08-.149l-.002-.006c-.022-.063-.09-.096-.153-.074-.063.022-.096.09-.074.154zM60.868.947c.022.063.09.096.153.075.06-.019.095-.083.076-.144l-.001-.006c-.02-.063-.087-.098-.15-.08-.063.023-.098.091-.078.155zm-10.764 6.14c.05.032.115.017.147-.033.031-.05.017-.116-.033-.148-.05-.031-.115-.017-.147.033h-.001c-.03.051-.016.117.034.149zm1.373-2.204c.05.03.115.016.147-.033.033-.05.02-.116-.03-.149-.048-.033-.114-.02-.147.03l-.004.005c-.031.048-.018.113.03.145l.004.002zm1.33-2.268c.004.027.02.05.043.063.05.031.115.016.147-.033.033-.05.018-.118-.033-.151h-.001c-.03-.02-.068-.023-.1-.009h-.005c-.02.008-.034.023-.042.042-.018.026-.021.059-.01.088zm1.416-2.14c.051.03.118.014.15-.037.03-.05.015-.118-.036-.15-.05-.03-.116-.015-.147.034-.033.051-.018.119.033.151v.001zm6.587 8.349c.015.058.073.094.132.081.056-.012.091-.068.08-.124l-.002-.004c-.012-.058-.069-.095-.127-.083h-.002c-.056.016-.092.072-.081.13zm-.579-2.53c.014.057.071.092.128.078.056-.012.09-.068.079-.124l-.002-.004c-.012-.058-.068-.095-.126-.083h-.002c-.057.017-.091.075-.077.133zm-.584-2.537c.012.058.069.095.126.083h.002c.055-.011.09-.064.08-.119l-.002-.01c-.012-.058-.069-.095-.127-.083h-.001c-.056.016-.09.072-.078.129zm-.583-2.529c.015.058.075.093.132.077.056-.014.09-.07.078-.127-.015-.057-.07-.093-.128-.083-.058.016-.094.074-.082.133zm-3.81 6.41c-.007.059.033.113.091.122.058.01.113-.029.123-.086.008-.059-.03-.115-.087-.128-.06-.009-.116.032-.126.092zm.431-2.565c-.011.056.025.11.08.121l.007.002c.057.01.112-.03.122-.087.009-.059-.03-.114-.087-.127-.058-.008-.113.032-.122.09zm.427-2.565c-.01.058.029.113.086.123.057.01.112-.029.122-.086.01-.058-.028-.113-.086-.123-.057-.01-.112.028-.122.086zm8.841 3.052c.032.047.095.059.141.027.002 0 .004-.002.006-.004.048-.032.061-.1.029-.148l-.003-.003c-.036-.047-.102-.057-.15-.023-.047.034-.059.1-.025.147l.002.004zm-1.505-2.118c.035.049.102.06.151.027.048-.036.057-.104.021-.152-.034-.046-.097-.057-.145-.026-.049.032-.063.097-.03.146 0 .002.002.004.003.005zm-7.17-.578c.001.034.03.061.064.06.035-.001.062-.03.06-.065 0-.034-.03-.061-.064-.06-.034 0-.061.03-.06.065zm-.056-1.532c.004.035.034.061.07.06.034-.001.061-.03.06-.065 0-.034-.027-.061-.06-.061h-.005c-.035 0-.064.028-.065.064v.002zm-2.91.26c.032.01.067-.006.08-.037.013-.032-.002-.068-.033-.08l-.004-.002c-.03-.013-.066.001-.08.032l-.001.006c-.012.032.005.069.037.081zm5.811-.19c.014.033.05.047.082.033.032-.014.046-.051.032-.083-.01-.03-.044-.046-.074-.035-.003 0-.005.002-.008.003-.031.013-.046.05-.033.08l.001.003zM56.38 3.416c.006.036.04.061.077.055l.008-.002c.038-.009.062-.047.053-.085-.01-.038-.047-.063-.086-.058-.039.01-.062.05-.052.09zM56 1.706c.01.04.05.063.09.053.038-.01.061-.048.053-.086-.01-.038-.047-.063-.086-.058-.04.012-.064.05-.057.091zm-3.194.909c.008.006.018.01.027.013.039.008.076-.018.083-.056v-.003c.006-.038-.018-.074-.055-.084h-.004c-.038-.006-.075.02-.082.058v.002c-.006.028.006.056.03.07zm.276-1.796c-.008.038.017.076.054.084h.001c.04.007.077-.017.088-.056.005-.04-.02-.077-.06-.087-.039-.006-.076.02-.083.06zm6.235.396c.023.033.068.04.1.018l.002-.002c.031-.022.039-.066.017-.098-.02-.033-.062-.043-.094-.024l-.004.003c-.034.023-.043.069-.02.103zm-8.8 5.667c-.012.068.034.131.101.143.068.01.131-.035.142-.103.011-.067-.035-.131-.102-.142-.067-.01-.13.035-.142.102zm.461-2.965c-.008.068.039.131.107.142.067.008.129-.04.137-.107.008-.068-.04-.13-.107-.138-.066-.008-.126.037-.137.103zM51.446.95c-.01.068.035.131.102.142.067.011.13-.034.142-.102.011-.068-.035-.131-.102-.142-.067-.011-.13.035-.142.102zm10.868 6.024c.043.055.12.067.177.028.055-.043.064-.122.022-.176-.04-.053-.116-.064-.17-.026-.055.041-.067.118-.029.174zm-1.76-2.426c.04.054.117.067.173.028.055-.04.068-.118.028-.174-.04-.056-.118-.068-.173-.028-.055.041-.067.118-.028.174zm-1.76-2.426c.04.054.117.067.172.028.055-.043.067-.12.028-.178-.042-.055-.121-.064-.175-.022-.053.042-.064.117-.026.172zm-2.861 6.19c.019.066.085.106.151.093.065-.019.104-.086.088-.151-.015-.066-.08-.108-.145-.094h-.002c-.068.017-.109.085-.092.152zm-.702-2.92c.016.067.084.108.151.092.065-.016.105-.082.088-.147-.015-.067-.08-.108-.147-.093-.066.015-.107.081-.092.148zm-.701-2.917c.014.065.079.107.144.093h.003c.067-.015.11-.081.096-.15-.014-.067-.08-.11-.148-.096-.067.014-.11.08-.096.148v.005zm-.41 6.803c.015.066.08.107.147.092.066-.015.107-.08.092-.147-.014-.065-.077-.106-.142-.094-.068.015-.111.08-.097.149zm-.578-2.934c.014.067.08.11.148.097.065-.015.107-.078.097-.144-.015-.068-.08-.112-.148-.101-.067.015-.11.08-.097.148zm-.578-2.934c.014.067.08.11.148.097.066-.013.11-.077.097-.144-.012-.067-.076-.11-.143-.098-.067.014-.112.077-.102.145zM52.39.476c.01.065.072.11.136.1l.008-.002c.066-.014.11-.078.097-.144-.013-.067-.077-.11-.144-.098-.066.013-.11.078-.097.144zm6.754 5.104c.04.056.117.07.174.032.056-.038.07-.114.033-.17-.035-.057-.109-.075-.166-.04l-.004.003c-.058.037-.075.113-.039.171l.002.004zm-1.652-2.49c.04.057.117.072.174.033.056-.037.07-.113.033-.17-.035-.056-.109-.074-.166-.04l-.004.003c-.058.037-.075.114-.039.172l.002.003zM55.84.603c.04.056.117.07.174.032.055-.038.07-.113.032-.17-.037-.057-.114-.072-.171-.034-.057.037-.073.115-.035.172zm-1.656 3.514c.02.047.075.069.122.048.047-.02.068-.073.05-.12-.017-.046-.069-.07-.115-.052l-.009.004c-.045.02-.067.073-.048.12zm-.884-2.07c.02.048.076.07.123.05.048-.02.07-.076.05-.124l-.001-.002c-.02-.047-.074-.069-.12-.05l-.004.002c-.047.022-.068.077-.048.124zM57.377.623c.035.036.092.037.128.002l.002-.003c.037-.034.039-.092.004-.13l-.005-.004c-.038-.035-.097-.031-.132.007-.032.037-.03.093.003.128zM69.194 5.346c-.003.066.047.123.113.128.063.007.12-.04.127-.103v-.006c.004-.067-.046-.124-.112-.128-.065-.006-.123.043-.128.109zm.202-2.903c-.004.066.046.124.112.129.067.004.124-.046.128-.113v-.002c.006-.065-.043-.123-.108-.128-.067-.002-.124.047-.132.114zm-5.717.054c.06.028.13.002.157-.058.028-.06.002-.131-.058-.159-.059-.027-.128-.002-.156.056-.028.06-.003.132.057.161zm11.01.807c.023.062.091.096.154.074.062-.02.095-.086.075-.148v-.001c-.017-.062-.08-.099-.141-.082l-.009.002c-.062.024-.096.09-.078.155zM73.772.539c.023.062.09.096.154.079.062-.023.095-.091.074-.154-.021-.063-.089-.096-.151-.075h-.003c-.061.02-.095.087-.075.149l.001.001zm-12.605.615c.05.032.115.017.147-.033.032-.05.017-.116-.032-.148-.05-.032-.116-.017-.148.033-.031.051-.016.117.033.148zm10.706 1.737c.016.058.074.094.133.081.055-.012.09-.068.078-.124v-.004c-.013-.058-.07-.095-.127-.083h-.002c-.057.016-.093.072-.082.13zM71.293.36c.015.057.072.091.128.078.056-.012.091-.068.079-.124l-.001-.004c-.012-.058-.069-.095-.127-.083h-.002c-.057.017-.09.075-.077.133zm-4.976 1.344c-.008.058.032.113.09.122.058.01.113-.029.123-.086.009-.059-.03-.115-.087-.128-.06-.009-.116.032-.126.092zM61.58.949c-.011.068.034.131.102.142.067.012.13-.034.142-.102.01-.067-.035-.131-.102-.142-.068-.01-.131.035-.142.102zm11.797.093c.042.055.12.067.177.027.054-.042.064-.121.021-.176-.04-.052-.116-.063-.17-.025-.054.041-.067.118-.028.174zM66.995 2.38c.02.066.085.105.152.092.065-.018.104-.085.087-.15-.014-.067-.079-.108-.145-.094h-.002c-.067.017-.108.085-.092.152zm-1.813.966c.015.066.081.107.147.092.066-.015.107-.08.092-.147-.014-.065-.077-.106-.142-.094-.068.015-.11.08-.097.149zM64.604.412c.015.067.08.11.148.096.065-.014.108-.077.097-.144-.015-.067-.08-.111-.148-.1-.066.015-.109.08-.097.148z" transform="translate(-105 -295) translate(105 295) translate(21 6)"/>
                        </g>
                        <g>
                            <path fill="#2F65A2" d="M34.64 83.662h6.65s2.868 3.104 6.365 4.623c3.497 1.52 4.546 3.57 4.546 3.57l-20.46-.001 2.898-8.192M37.032 72.683l6.508-1.386s3.437 2.44 7.167 3.197c3.731.757 5.174 2.544 5.174 2.544L35.86 81.304l1.172-8.62" transform="translate(-105 -295) translate(105 295) translate(21 6) translate(11 46)"/>
                            <path fill="url(#053s1mxh2c)" d="M15.777 36.416S30.9 39.12 34.84 40.746c3.94 1.627 4.212 5.956 5.92 14.94 1.984 10.444 2.896 15.668 2.896 15.668l-7.424 1.528s-2.596-1.322-3.474-5.883c-.879-4.56-.416-4.986-1.482-7.431-1.067-2.445-1.92-3.773-1.92-6.915 0-3.141-1.787-4.693-4.453-4.523-2.666.171-14.52.038-19.56-8.205l-1.13-1.846s8.366-3.349 11.563-1.663" transform="translate(-105 -295) translate(105 295) translate(21 6) translate(11 46)"/>
                            <path fill="url(#5d9jmdsekd)" d="M30.376 22.331s1.494-.64 1.494-1.814 1.961-1.987 1.961-1.987l-1.518 3.069-.8 1.718s-1.65 2.86-1.137-.986z" transform="translate(-105 -295) translate(105 295) translate(21 6) translate(11 46)"/>
                            <path fill="#274992" d="M29.466 77.409c.866 1.99 3.333 5.016 5.173 6.253h6.65c-.276-1.147-5.933-24.751-8.163-28.905-1.819-3.385-4.387-6.964-6.94-10.081l-6.384-7.574-6.332 1.284c-.223-.092-.634-.16-.88-.243-.456-.156-.887 1.61-1.476 1.198-1.003.509-6.344.04-7.076.333.469 5.507 5.147 9.556 10.675 12.31 10.312 5.135 8.429 7.69 9.297 11.128.861 3.44 1.464 5.493 3.428 7.958 1.97 2.465.38 2.541 2.028 6.339z" transform="translate(-105 -295) translate(105 295) translate(21 6) translate(11 46)"/>
                            <path fill="#72A065" d="M36.124 22.478l-3.856-.89c-.228-.053-.371-.283-.32-.515.014-.06.04-.116.077-.165l5.08-6.76c.103-.136.276-.197.44-.156l3.879.975c.227.057.366.29.31.52-.015.059-.041.113-.077.16l-5.104 6.675c-.1.132-.268.193-.429.156z" transform="translate(-105 -295) translate(105 295) translate(21 6) translate(11 46)"/>
                            <path fill="url(#hvrc2irple)" d="M30.739 23.258s1.102-.843 1.574-1.66c0 0 .725.17 1.177.245 0 0 .059-1.165 2.327-1.362 2.046-.177 1.776-.628 3.042-1.047 1.266-.42 1.782-.041 1.853.387 0 0-1.332.488-1.639.988-.306.5-.673 1.722-1.783 2.118-1.11.395-4.938.705-5.737 3.31l-.814-2.979" transform="translate(-105 -295) translate(105 295) translate(21 6) translate(11 46)"/>
                            <path fill="#FFF" d="M12.75 43.226c.022.01.05-.001.06-.025.01-.023-.002-.05-.025-.06-.023-.01-.05 0-.06.024-.01.023 0 .05.024.06zm.43-1.045c.024.01.05-.001.062-.025.009-.024-.003-.051-.027-.06-.02-.011-.047-.002-.058.02l-.002.004c-.01.024 0 .05.024.06zm.433-1.045c.023.01.05-.001.06-.025.009-.024-.002-.052-.025-.064-.025-.008-.052.004-.063.028-.008.025.004.051.028.06zm.43-1.045c.023.01.05-.001.06-.025.01-.024-.001-.052-.025-.064-.023-.01-.05.001-.06.025-.01.024.001.052.025.064zm3.388 3.123c.01.024.037.036.06.026.023-.008.035-.032.027-.055l-.003-.006c-.008-.023-.034-.035-.057-.027-.024.01-.036.037-.027.062zm-6.29-1.821c.018.017.046.018.064 0 .017-.017.018-.046 0-.064-.017-.018-.046-.018-.063 0-.018.015-.02.042-.004.06l.003.004zm.793-.798c.014.014.035.017.052.005h.003c.003 0 .006-.002.009-.004.01-.01.016-.026.013-.04-.002-.01-.006-.02-.013-.028-.017-.017-.045-.018-.063 0-.019.017-.02.046-.002.065l.001.002zm.793-.798c.018.017.046.016.063-.002.018-.018.018-.046 0-.064-.017-.018-.045-.019-.063-.001-.018.018-.019.047-.002.066l.002.001zm2.333 3.268c.001.026.022.047.047.048.027 0 .048-.022.048-.048 0-.027-.022-.048-.048-.048-.026.002-.046.022-.047.048zm.003-1.132c.001.025.022.045.047.044.025.002.046-.016.048-.04v-.005c0-.026-.022-.047-.048-.048-.025.002-.045.023-.047.049zm-8.405 1.573c.03.037.085.041.122.01l.002-.002c.036-.031.04-.086.01-.122H6.79c-.031-.038-.086-.042-.122-.011l-.003.002c-.036.031-.04.086-.009.122zm1.599-1.408c.032.038.087.041.124.009.037-.033.04-.09.009-.127-.032-.036-.086-.04-.122-.009-.037.033-.042.089-.011.127zm1.602-1.408c.032.038.088.041.124.009.037-.033.04-.09.008-.127-.032-.037-.088-.04-.124-.008-.037.031-.042.087-.01.124 0 0 0 .002.002.002zm3.16 8.196c-.002.05.034.091.083.094.046.006.088-.028.093-.075V48.9c.003-.049-.034-.09-.082-.094-.048-.004-.09.032-.094.08zm.148-2.14c-.002.05.035.09.084.093.047.002.088-.034.091-.082.004-.049-.031-.091-.08-.095-.048-.002-.09.035-.095.084zm.15-2.144c-.004.048.032.09.08.094h.002c.047.005.088-.028.094-.075v-.005c.002-.05-.034-.092-.083-.097-.048-.003-.09.034-.093.083zm.148-2.14c-.003.049.034.09.082.093.049.003.09-.034.093-.083.004-.048-.031-.09-.08-.095-.048-.004-.09.032-.095.08v.005zm.15-2.145c-.004.049.03.091.079.095.047.004.089-.031.093-.08v-.003c.004-.048-.03-.09-.077-.095h-.002c-.049-.002-.09.035-.093.083zm-4.623 6.47c.043.02.095 0 .115-.044.02-.044.001-.097-.043-.117-.042-.02-.093-.002-.114.04-.02.046-.002.098.042.12zm.946-1.923c.044.02.095.001.115-.043.02-.044.001-.097-.042-.117-.043-.02-.094-.002-.114.041-.02.045-.002.097.041.12zm.947-1.919c.045.021.098.002.118-.044.02-.043.003-.095-.039-.118-.044-.023-.097-.006-.12.038-.023.044-.006.099.037.122l.004.002zm.946-1.925c.042.023.094.006.117-.037l.001-.002c.022-.043.006-.097-.037-.119-.043-.022-.095-.006-.117.037l-.002.004c-.022.041-.007.092.033.114l.005.003zm5.201 6.36c.016.047.066.071.112.056.045-.015.07-.064.055-.11-.012-.046-.058-.073-.103-.061l-.006.002c-.046.017-.07.066-.058.114zm-.67-2.038c.016.046.065.071.112.058.045-.016.07-.067.054-.113-.016-.046-.065-.071-.11-.056h-.002c-.045.016-.07.065-.055.11v.001zm-.671-2.035c.013.045.06.07.105.056h.004c.046-.015.072-.064.058-.11l-.001-.005c-.016-.046-.066-.071-.112-.055-.046.016-.07.067-.055.113zm-.674-2.038c.016.046.066.07.112.055.044-.014.07-.062.056-.107l-.002-.003c-.014-.047-.063-.073-.109-.059-.046.016-.071.067-.057.114zm-7.86 4.527c.036.023.084.012.108-.024.023-.037.012-.086-.024-.11-.037-.023-.085-.012-.108.025-.023.037-.012.086.024.11zm1.003-1.625c.036.022.084.011.107-.025.024-.036.015-.085-.02-.11-.036-.024-.085-.014-.109.022l-.003.004c-.023.035-.013.083.022.107l.003.002zm.97-1.673c.004.02.016.037.033.047.036.023.084.012.107-.024.024-.038.013-.088-.024-.112-.023-.015-.05-.017-.074-.006h-.003c-.014.006-.025.016-.031.03-.014.02-.016.044-.007.065zm1.035-1.578c.038.023.086.01.109-.027.022-.038.01-.087-.026-.11-.036-.023-.084-.012-.107.025-.024.038-.013.087.024.111v.001zm4.81 6.156c.011.043.053.07.096.06.041-.01.067-.05.058-.091v-.004c-.01-.042-.051-.07-.093-.06h-.002c-.041.011-.067.052-.06.095zm-.423-1.865c.01.042.052.067.093.058.041-.01.067-.05.058-.092l-.001-.003c-.009-.043-.05-.07-.092-.06h-.002c-.041.011-.066.055-.056.097zm-.426-1.87c.009.042.05.07.092.06h.001c.04-.008.066-.047.059-.087l-.002-.007c-.009-.043-.05-.07-.092-.061h-.002c-.04.011-.065.053-.056.094zm-.426-1.865c.011.043.055.068.096.057.041-.011.066-.053.057-.094-.01-.042-.052-.069-.093-.061-.043.012-.069.055-.06.098zm-.426-1.87c.01.042.051.07.094.06.042-.01.069-.052.06-.095-.012-.043-.054-.07-.097-.06-.04.012-.065.053-.057.094zm-6.908 1.603c.024.035.072.043.107.019l.003-.002c.034-.024.042-.07.02-.105l-.003-.004c-.024-.036-.073-.045-.108-.021l-.003.002c-.034.026-.04.076-.016.111zm4.552 4.993c-.005.043.024.083.066.09.043.007.082-.021.09-.064.006-.043-.022-.084-.064-.094-.043-.006-.084.024-.092.068zm.315-1.891c-.009.04.018.081.058.09h.005c.042.007.082-.021.089-.064.006-.043-.021-.084-.063-.093-.043-.006-.082.023-.09.067zm.311-1.891c-.007.042.021.083.063.09.042.008.082-.021.09-.063.007-.043-.022-.084-.064-.091-.041-.008-.082.021-.089.064zm.312-1.891c-.008.043.02.083.062.09.025.006.05-.001.067-.019h.004c.011-.013.019-.028.022-.045.006-.043-.024-.083-.066-.09-.042-.007-.082.021-.09.064zM18 44.669c.022.035.069.044.102.02l.004-.002c.036-.025.045-.074.022-.11l-.002-.002c-.027-.034-.075-.042-.11-.017s-.043.074-.019.109l.003.003zm-1.1-1.56c.026.035.074.044.11.02.035-.028.042-.078.016-.113-.025-.034-.071-.042-.106-.02-.036.024-.046.073-.022.109l.002.003zm-9.62-2.063c.019.017.048.016.065-.003.018-.02.017-.05-.002-.067-.02-.018-.049-.017-.066.003s-.016.048.002.067zm4.384 1.636c.001.025.022.045.048.044.025 0 .045-.022.044-.047-.001-.026-.022-.046-.048-.045-.025 0-.045.022-.044.048zm-.04-1.13c.003.026.025.046.05.044.026 0 .045-.022.044-.047 0-.025-.02-.045-.043-.045h-.004c-.026 0-.047.02-.047.047v.001zm-.037-1.13c0 .026.021.046.047.045.025 0 .045-.022.044-.047 0-.025-.02-.046-.044-.046h-.003c-.025.001-.045.023-.044.048zm-2.089 1.323c.024.007.05-.005.06-.028.01-.023-.002-.05-.025-.06h-.002c-.023-.01-.049 0-.058.023l-.002.004c-.009.024.003.051.027.06zm.394-1.06c.024.008.049-.004.06-.027.007-.024-.005-.05-.028-.06-.022-.01-.048 0-.059.022v.002c-.011.025 0 .052.024.063h.003zm3.85.92c.01.023.037.034.06.023.024-.01.034-.037.024-.06-.008-.023-.033-.035-.055-.027l-.005.003c-.023.01-.034.036-.024.06zm-.463-1.029c.011.024.04.034.063.023.022-.01.031-.038.02-.06-.008-.023-.032-.034-.054-.026l-.006.002c-.022.01-.033.037-.024.06v.001zm-6.796 1.591c.023.016.055.01.07-.015v-.001c.017-.024.01-.056-.012-.072l-.004-.003c-.023-.015-.054-.008-.07.015v.002c-.016.025-.008.058.016.074zm.684-1.086c.025.015.058.008.074-.017.015-.025.008-.059-.017-.075-.023-.015-.054-.008-.07.015v.002c-.018.023-.013.055.01.072l.003.003zm4.572 2.007c.005.027.03.046.056.04h.006c.028-.007.045-.036.04-.064-.008-.028-.035-.046-.063-.042-.029.007-.046.037-.039.066zm-.277-1.26c.008.03.037.046.065.04.029-.008.046-.036.04-.064-.008-.028-.035-.046-.063-.043-.029.009-.047.037-.042.067zm-.27-1.264c.003.028.027.048.054.044l.008-.001c.028-.007.045-.035.04-.063-.008-.029-.035-.047-.064-.043-.027.007-.045.035-.038.063zM9.13 42.498c.006.005.013.008.02.01.028.006.055-.013.06-.042v-.002c.005-.028-.012-.054-.04-.061H9.17c-.029-.005-.056.014-.06.042l-.001.002c-.004.02.005.041.023.051zm.202-1.323c-.006.028.012.055.04.061.029.006.056-.012.064-.04.004-.03-.015-.058-.044-.065-.028-.005-.055.015-.06.044zm4.553.291c.016.024.049.03.073.013h.001c.023-.017.028-.05.012-.073-.014-.024-.045-.032-.069-.018l-.003.002c-.024.017-.03.05-.014.076zm-.727-1.059c.014.023.044.03.067.015l.004-.002c.024-.015.032-.046.017-.07l-.001-.003c-.017-.025-.05-.032-.075-.015-.024.017-.03.05-.012.075zm-5.7 5.238c-.008.05.025.097.075.105.05.008.095-.026.103-.076.009-.05-.025-.097-.074-.105-.05-.008-.096.026-.104.076zm.338-2.186c-.007.05.028.096.077.104.05.006.094-.03.1-.079.007-.05-.028-.095-.077-.102-.049-.006-.093.028-.1.077zm.34-2.187c-.008.05.025.097.075.105.049.008.095-.026.103-.076.008-.05-.025-.097-.074-.105-.05-.008-.096.026-.104.076zm7.936 4.44c.031.041.088.05.13.021.04-.031.046-.09.015-.13-.03-.038-.085-.047-.124-.018-.04.03-.049.087-.02.128zm-1.285-1.788c.03.04.085.05.126.021.04-.03.05-.087.02-.128-.028-.04-.085-.05-.125-.02-.04.03-.05.086-.021.127zm-1.286-1.788c.03.04.086.05.126.02.04-.031.05-.089.02-.13-.03-.041-.088-.048-.127-.017-.039.03-.047.086-.019.127zm-1.285-1.789c.03.04.085.05.126.02.04-.03.048-.088.02-.13-.029-.04-.084-.049-.124-.02l-.002.002c-.04.027-.05.08-.025.121l.005.007zm-6.732 1.249c.043.026.1.013.126-.03.026-.044.013-.101-.03-.128-.043-.027-.1-.013-.126.03-.025.044-.012.1.03.128zm5.929 5.104c.014.048.061.078.11.068.048-.014.076-.063.064-.112-.01-.048-.058-.079-.106-.069l-.002.001c-.048.012-.078.062-.066.112zm-.513-2.154c.012.05.061.08.11.068.048-.012.077-.06.065-.108-.011-.05-.06-.08-.108-.069-.048.012-.078.06-.067.11zm-.512-2.15c.01.048.058.079.105.069h.002c.05-.011.08-.06.07-.11-.01-.05-.058-.082-.108-.072-.049.01-.08.06-.07.11v.003zm-.3 5.016c.012.048.06.08.108.068.048-.011.078-.06.067-.109-.01-.047-.056-.078-.103-.069-.05.01-.081.06-.071.11zm-.421-2.164c.01.05.058.082.108.072.047-.011.078-.058.07-.106-.01-.05-.058-.083-.107-.075-.05.012-.08.06-.071.11zm-.422-2.163c.01.05.058.082.108.072.048-.01.08-.057.07-.107-.009-.049-.056-.08-.104-.072-.049.01-.082.057-.074.107zm-.42-2.163c.008.047.053.08.1.073l.006-.002c.048-.01.08-.057.07-.106-.009-.05-.056-.081-.104-.072-.049.01-.08.058-.071.107zm5.31-1.053c.042.027.098.015.126-.027.026-.042.014-.098-.027-.125-.038-.028-.092-.02-.12.02l-.003.004c-.029.041-.019.098.022.127l.002.001zM5.99 44.02c-.009.05.023.097.07.106h.002c.048.01.096-.02.107-.07.01-.05-.023-.098-.072-.108-.049-.009-.096.023-.107.073zm.43-2.163c-.01.049.02.097.069.108.048.01.096-.021.106-.07v-.002c.009-.05-.023-.098-.071-.109-.048-.01-.095.023-.104.072zm7.339 2.828c.028.042.085.053.126.024.041-.028.052-.084.024-.125-.025-.042-.079-.055-.12-.03l-.004.002c-.042.027-.055.084-.028.127 0 0 0 .002.002.002zm-1.207-1.835c.029.042.085.053.127.024.04-.028.052-.084.024-.125-.025-.042-.08-.055-.12-.03l-.004.002c-.042.027-.055.084-.028.127l.001.002zm-1.206-1.835c.028.042.085.053.127.024.04-.028.051-.084.024-.125-.027-.043-.083-.055-.125-.027-.042.027-.054.084-.027.127v.001zm-1.21 2.59c.015.036.055.052.09.037.033-.015.05-.054.036-.089-.013-.034-.05-.051-.084-.038l-.006.002c-.034.016-.05.055-.036.089zm-.645-1.525c.015.035.056.051.09.036.035-.015.05-.056.036-.091-.015-.036-.054-.052-.089-.037h-.002c-.034.017-.05.057-.035.092zm-.645-1.529c.015.035.055.051.09.036.034-.016.05-.057.035-.092-.015-.035-.056-.05-.09-.035-.034.016-.05.056-.035.091zm-2.188 2.888c.001.038.032.068.07.068.036-.003.065-.033.065-.07 0-.038-.031-.068-.068-.068-.037 0-.067.029-.067.065v.005zm-.022-1.664c.002.038.032.07.07.07.037 0 .067-.031.066-.069.001-.037-.027-.068-.063-.068h-.003c-.037-.002-.068.028-.07.066v.001zm5.832-.744c.026.026.067.027.094.001l.001-.002c.027-.025.028-.068.003-.095l-.004-.004c-.028-.025-.07-.023-.096.005-.024.028-.023.069.002.095zm-5.174.21c.019.027.057.035.085.016.026-.016.036-.05.02-.077 0-.002-.002-.004-.003-.005-.015-.029-.05-.039-.078-.024l-.004.003c-.029.017-.039.054-.022.083l.002.003z" opacity=".66" transform="translate(-105 -295) translate(105 295) translate(21 6) translate(11 46)"/>
                            <path fill="#FFF" d="M16.732 40.573c.023.01.05 0 .06-.024.01-.023-.001-.05-.024-.06-.023-.01-.05 0-.06.024-.01.023 0 .05.024.06zm.43-1.044c.024.009.051-.002.063-.025.009-.024-.003-.051-.027-.06-.021-.011-.047-.003-.058.019l-.002.005c-.01.023 0 .05.024.06zm4.252 1.032c.01.025.036.037.06.027.023-.008.034-.033.026-.055l-.002-.006c-.009-.023-.035-.036-.058-.027-.024.01-.036.037-.026.061zm-2.372-.148c.002.026.023.046.048.048.026 0 .047-.022.047-.049 0-.026-.021-.048-.047-.047-.026.001-.046.022-.048.048zm.004-1.133c0 .026.022.046.047.045.024.002.046-.017.048-.041v-.004c0-.026-.022-.047-.048-.048-.025.002-.046.023-.047.048zm-8.406 1.574c.031.036.086.041.122.01l.003-.002c.036-.032.04-.086.009-.123-.032-.037-.086-.042-.123-.01l-.002.002c-.036.031-.04.086-.01.122h.001zm6.362 5.38c-.003.049.034.09.082.094.047.005.088-.029.093-.075v-.005c.003-.05-.033-.091-.082-.094-.047-.004-.09.031-.093.08zm.147-2.14c-.002.049.036.09.084.093.048.002.088-.035.092-.083.004-.048-.032-.09-.08-.094-.048-.002-.09.035-.096.084zm.15-2.144c-.003.048.033.09.08.094h.003c.046.005.088-.029.093-.076v-.004c.002-.05-.034-.092-.082-.098-.049-.002-.09.035-.093.084zm.148-2.14c-.002.048.035.09.083.093.048.003.09-.034.093-.083.004-.048-.032-.091-.08-.095-.048-.004-.091.032-.096.08v.004zm-4.473 4.324c.044.02.096 0 .116-.043.02-.044 0-.097-.043-.117-.043-.02-.093-.002-.114.04-.02.045-.002.098.041.12zm.947-1.922c.043.02.095 0 .115-.043.02-.045 0-.097-.043-.117-.042-.02-.093-.002-.114.04-.02.045-.002.098.042.12zm.947-1.92c.044.022.097.002.118-.043.02-.044.003-.095-.04-.118-.043-.023-.097-.006-.12.038-.022.044-.006.099.038.122l.004.002zm6.147 4.436c.016.047.066.07.112.055.045-.014.07-.064.055-.11-.013-.046-.059-.073-.103-.06l-.007.001c-.045.018-.07.067-.057.114zm-.671-2.038c.017.046.066.07.112.058.046-.017.07-.067.054-.114-.015-.046-.065-.07-.11-.055h-.001c-.046.015-.07.064-.055.11zm-.67-2.035c.013.044.06.07.104.056l.004-.001c.046-.014.073-.063.059-.11l-.002-.004c-.015-.047-.065-.071-.111-.055-.046.016-.07.066-.055.113zm-8.534 2.489c.036.023.084.012.107-.025.023-.036.013-.085-.024-.109-.036-.023-.084-.012-.107.025-.023.037-.012.085.024.109zm1.002-1.626c.037.023.085.012.108-.024.024-.037.014-.086-.021-.11-.036-.024-.084-.015-.108.021l-.003.004c-.023.036-.013.084.022.107l.002.002zm.971-1.672c.003.02.015.037.032.047.036.023.084.012.107-.025.024-.037.013-.087-.024-.111-.022-.015-.05-.017-.074-.006h-.003c-.014.006-.025.016-.03.03-.014.02-.017.044-.008.065zm5.844 4.578c.012.043.054.069.097.06.04-.01.066-.05.057-.091v-.004c-.01-.043-.05-.07-.093-.06h-.001c-.041.01-.068.052-.06.095zm-.422-1.865c.01.042.052.067.093.057.04-.009.066-.05.057-.091v-.003c-.01-.043-.05-.07-.093-.061h-.001c-.042.012-.067.055-.056.098zm-.427-1.87c.01.042.05.07.092.06h.002c.04-.008.066-.047.058-.087l-.001-.008c-.01-.042-.05-.07-.093-.06h-.001c-.04.01-.066.052-.057.094zm-3.207 2.86c-.006.044.024.084.066.09.042.008.082-.02.09-.063.006-.043-.022-.084-.064-.094-.044-.007-.085.023-.092.068zm.314-1.89c-.008.04.018.08.059.09h.004c.042.007.082-.021.09-.064.006-.043-.022-.084-.064-.094-.042-.006-.082.024-.089.067zm.312-1.892c-.008.043.02.084.063.091.042.007.082-.021.089-.064.007-.042-.02-.083-.063-.09-.042-.008-.082.02-.09.063zm6.456 2.25c.023.035.07.044.103.02l.004-.002c.036-.025.045-.074.021-.11l-.001-.002c-.027-.035-.075-.042-.11-.017s-.043.074-.019.109l.002.003zm-1.1-1.56c.026.035.075.044.111.019.035-.027.042-.077.016-.113-.025-.033-.072-.042-.107-.019-.035.024-.045.072-.022.108l.003.004zm-5.235-.428c.001.026.022.046.047.045.026 0 .045-.022.044-.048 0-.025-.022-.045-.047-.044-.025 0-.045.022-.044.047zm-.04-1.13c.002.027.024.046.05.045.025-.001.045-.022.044-.048 0-.024-.02-.044-.044-.045h-.003c-.026 0-.047.022-.048.048zm.114 1.537c.005.027.03.045.057.04h.006c.028-.008.045-.036.039-.064-.008-.028-.035-.046-.063-.043-.029.008-.046.037-.039.066zm-.276-1.26c.007.029.036.046.065.039.028-.007.046-.035.04-.063-.008-.028-.035-.046-.063-.043-.03.008-.047.037-.042.067zm-2.333.67c.006.005.013.008.02.01.029.005.056-.013.06-.042l.001-.002c.005-.028-.013-.055-.04-.062h-.003c-.028-.005-.055.014-.06.043v.002c-.004.02.005.04.022.051zm-1.671 3.146c-.008.05.025.097.074.106.05.008.096-.026.104-.076.008-.05-.025-.097-.074-.105-.05-.008-.096.026-.104.075zm.337-2.186c-.006.05.028.097.078.105.05.006.094-.03.1-.08.007-.05-.029-.095-.078-.1-.048-.007-.092.027-.1.075zm8.277 2.255c.03.04.088.049.13.02.04-.032.046-.09.015-.13-.03-.039-.085-.047-.124-.018-.04.03-.05.086-.021.128zm-1.286-1.789c.03.04.086.05.127.02.04-.029.05-.086.02-.127-.029-.041-.085-.05-.126-.021-.04.03-.05.087-.02.128zm-1.285-1.789c.03.04.085.05.126.021.04-.031.049-.089.02-.131-.03-.04-.088-.047-.128-.016-.038.03-.046.086-.018.126zm-2.089 4.565c.014.048.062.077.11.068.048-.014.077-.063.065-.112-.01-.049-.058-.08-.106-.069h-.002c-.049.013-.079.063-.067.113zm-.512-2.154c.012.05.06.08.11.068.047-.012.076-.06.065-.109-.011-.049-.06-.079-.108-.068-.048.011-.078.06-.067.109zm-.512-2.15c.01.048.057.079.105.068h.002c.05-.01.08-.06.07-.11-.01-.05-.059-.082-.108-.071-.05.01-.08.06-.07.11v.003zm-.3 5.015c.011.05.06.08.108.069.048-.011.078-.06.067-.109-.01-.048-.057-.078-.104-.069-.05.01-.08.06-.07.11zm-.422-2.163c.01.05.059.082.108.071.048-.01.079-.057.071-.106-.01-.05-.058-.082-.108-.074-.049.011-.08.06-.07.109zm-.422-2.163c.01.05.059.082.108.071.049-.009.08-.057.071-.106-.009-.05-.056-.081-.104-.072-.05.01-.082.057-.075.107zm-3.255.934c-.01.05.022.096.07.106h.001c.049.01.097-.02.108-.07.009-.05-.023-.098-.072-.108-.05-.009-.096.023-.107.072zm7.768.665c.029.042.085.052.127.024.04-.028.052-.084.024-.125-.025-.043-.08-.056-.12-.03l-.004.002c-.042.027-.055.084-.028.126l.001.003zm-1.206-1.835c.028.042.085.052.127.024.04-.028.051-.084.024-.125-.026-.042-.08-.056-.121-.03l-.004.002c-.042.027-.054.084-.028.126l.002.003zm-2.416.756c.015.035.055.05.09.035.033-.014.05-.054.036-.088-.013-.034-.05-.052-.084-.039l-.007.003c-.033.015-.049.054-.035.089zm-3.479-.167c.002.038.032.068.07.068.037-.003.065-.034.066-.07 0-.039-.031-.069-.069-.068-.036 0-.066.029-.067.065v.005z" opacity=".66" transform="translate(-105 -295) translate(105 295) translate(21 6) translate(11 46)"/>
                            <path fill="url(#62szq1awff)" d="M32.327 30.247s-.781 1.64-3.514 1.753c-2.734.113-3.348.565-5.357 1.866-2.01 1.302-5.803 1.809-9.599-4.185-3.484-5.505-4.663-11.58-4.051-14.814.93.346 1.884.62 2.855.819.314.065.607.116.884.154.503.075 1.503.126 1.86.148.647 2.164 1.4 10.337 6.24 9.362 3.033-.596 5.97-1.612 8.73-3.02l1.952 7.917z" transform="translate(-105 -295) translate(105 295) translate(21 6) translate(11 46)"/>
                            <path fill="url(#sv8be5opwg)" d="M15.892 38.601c-2.347 1.053-5.655 1.91-10.287 2.101-1.087.046-2.25.052-3.487.017-3.786-4.48-.898-9.304.184-12.397 1.08-3.096.043-3.204 2.09-8.483.225-.542.485-1.069.78-1.577.34 4.984 2.27 10.577 4.95 15.329 1.667 2.953 3.573 4.503 5.77 5.01z" transform="translate(-105 -295) translate(105 295) translate(21 6) translate(11 46)"/>
                            <path fill="#FFF" d="M33.412 32.386s-.884 2.61-5.283 3.315c-4.4.708-5.231 2.014-7.395 2.62-1.754.493-3.364.623-4.842.28-2.197-.507-4.103-2.057-5.77-5.01-2.68-4.752-4.61-10.345-4.95-15.329.542-.975 1.151-1.91 1.822-2.8.717-.894 1.308-1.563 1.79-2.068.643-.316 5.597-1.182 6.378-1.057 0 0-.324 7.387 3.193 12.105.382.51-.29-.435 0 0 1.377 2.064 2.631 2.343 3.799 2.343 1.358 0 6.056-1.276 8.586-3.58l2.672 9.18z" transform="translate(-105 -295) translate(105 295) translate(21 6) translate(11 46)"/>
                            <path fill="#FFBEB6" d="M13.203 10.618c1.028.895 3.358 2.392 4.761 1.816 1.68-.69 2.148-2.094 2.458-2.043.31.053.999.004 1.085-.325.087-.326-.527-1.475-.365-2.703.015-.115.027-.225.034-.334l-.001-.003c.004-.026.007-.053.008-.079V6.91v-.013l.002-.053c.002-.13.002-.325-.017-.556-.008-.108-.02-.226-.038-.351-.018-.141-.048-.291-.084-.444l-.008-.033c-.009-.038-.016-.075-.026-.114-.017-.068-.038-.136-.06-.204-.016-.054-.035-.107-.056-.158l-.028-.076c-.018-.046-.038-.095-.059-.14-.003-.011-.008-.02-.013-.03 0 .001 0 .005-.003.008-.025.098-.058.193-.1.285-.011.03-.027.063-.043.095-.06.122-.13.238-.21.347-.012.02-.026.037-.041.057l-.045.057c-.03.039-.064.079-.1.117-.003.006-.007.008-.01.014-.051.058-.105.114-.161.167-.02.022-.042.04-.063.06-.001.002-.003.003-.005.003-.041.04-.088.08-.136.118l-.003.004c-.023.02-.048.038-.073.056-.11.087-.226.166-.346.239-.041.027-.086.05-.132.077-.021.013-.042.024-.065.035-.022.013-.045.028-.068.04l-.038.017c-.034.02-.072.037-.11.055-.038.017-.076.036-.116.052-.038.018-.076.036-.118.052-.106.043-.217.083-.332.123l-.2.065c-.258.077-.52.139-.785.186l-.172.032c-.528.093-1.043.251-1.533.472l-.221.129c-.207.121-.404.259-.59.412-.789.671-1.4 1.534-1.774 2.507z" transform="translate(-105 -295) translate(105 295) translate(21 6) translate(11 46)"/>
                            <path fill="#1C2868" d="M21.718 7.67c-.235.36-.714.457-1.068.218-.128-.087-.228-.21-.286-.354-.046-.11.115-.202.16-.09.112.307.449.466.753.353.115-.042.213-.12.283-.222.068-.098.227-.003.158.095z" transform="translate(-105 -295) translate(105 295) translate(21 6) translate(11 46)"/>
                            <path fill="#322C30" d="M16.397.319c-.577-.171-1.18-.237-1.78-.193h-.024c-2.192.072-3.858 1.321-4.902 3.105-.593.915-1.032 1.923-1.296 2.985-.541 1.92-1.085 5.577-3.69 5.481-.116-.004-.116.177 0 .181 1.664.061 2.515-1.403 3.048-2.813.35-.93.578-1.902.85-2.85-.074.396-.124.796-.15 1.198-.294 4.293-3.365 5.013-3.365 5.013 1.454.986 3.017 1.798 4.656 2.42.95.356 1.924.637 2.917.84.314.065.607.116.884.154.803.136 1.618.184 2.43.143 1.313-1.76.828-3.55.275-5.042.826 1.608 1.258 3.095.391 4.89-.05.105.104.197.155.092.52-1.012.668-2.18.415-3.292-.365-1.514-1.726-2.735-1.614-4.301.108-.417.469-.72 1.258-.871.036-.007.072-.012.11-.02 3.913-.654 3.831-2.702 3.831-2.706.298.726.428 1.511.38 2.296C22.66 3.16 19.304 1.17 16.396.319z" transform="translate(-105 -295) translate(105 295) translate(21 6) translate(11 46)"/>
                        </g>
                    </g>
                </g>
            </g>
        </g>
    </g>
</svg>
